<svg width="130" height="130" viewBox="0 0 130 130" fill="none" xmlns="http://www.w3.org/2000/svg">
<circle cx="65" cy="65" r="63" fill="#CA3332" stroke="#160100" stroke-width="4"/>
<circle cx="64.9999" cy="64.9999" r="58.6552" fill="#160100"/>
<path d="M46.0461 39.448V53.2H46.1541L48.2061 39.448H53.6421L55.6581 53.2H55.7661V39.448H62.1021L61.0581 64H52.8141L50.9781 53.164H50.8701L48.9981 64H40.7541L39.7461 39.448H46.0461ZM63.5117 39.448H76.5077V44.992H69.8477V48.952H75.1757V54.496H69.8477V58.456H76.5077V64H63.5117V39.448ZM77.9609 39.448H83.5409L86.1689 49.168H86.2769V39.448H91.8569V64H86.2409L83.6849 54.244H83.5769V64H77.9609V39.448ZM50.515 92H44.071L43.891 89.912H41.407L41.227 92H34.783L39.643 67.448H45.655L50.515 92ZM41.875 84.44H43.459L42.703 75.656H42.595L41.875 84.44ZM64.9139 77.924C64.9139 80.552 64.7699 80.948 62.7539 81.272V81.416C64.7699 81.74 64.9139 82.136 64.9139 84.764V92H58.5419V84.62C58.5419 84.368 58.3619 84.188 58.1459 84.188H57.5699C57.3539 84.188 57.1739 84.368 57.1739 84.62V92H50.8379V67.448H60.4499C62.8979 67.448 64.9139 69.428 64.9139 71.876V77.924ZM57.1739 79.508H58.1459C58.3619 79.508 58.5419 79.328 58.5419 79.112V73.388C58.5419 73.172 58.3619 72.992 58.1459 72.992H57.1739V79.508ZM70.1586 73.784H66.3066V67.448H80.3466V73.784H76.4946V92H70.1586V73.784ZM84.2602 85.664H90.5962V92H84.2602V85.664ZM84.2602 82.244C84.2242 81.164 84.8722 80.336 85.5922 79.724L88.6162 77.204C89.1562 76.664 89.4442 76.052 89.4442 75.44V73.064C89.4442 72.848 89.2642 72.668 89.0482 72.668H88.4722C88.2562 72.668 88.0762 72.848 88.0762 73.064V76.304H81.7402V71.588C81.7402 69.14 83.7202 67.124 86.1682 67.124H91.3522C93.8002 67.124 95.8162 69.14 95.8162 71.588V77.204C95.8162 78.284 95.6722 78.68 94.8802 79.4L90.5962 83.324V84.764H84.2602V82.244Z" fill="#FFF9EE"/>
</svg>
