<svg width="1384" height="263" viewBox="0 0 1384 263" fill="none" xmlns="http://www.w3.org/2000/svg">
<path d="M105.491 110.425V58.6829C105.491 55.5279 102.916 53.0039 99.7919 53.0039H88.9009V116.104H99.7919C102.916 116.104 105.491 113.538 105.491 110.425V110.425Z" fill="black"/>
<path d="M240.108 50.1013H234.916C231.792 50.1013 229.217 52.6674 229.217 55.7803V175.796C229.217 179.161 231.708 181.812 234.916 181.812H240.108C243.316 181.812 245.807 179.161 245.807 175.796V55.7803C245.807 52.6674 243.232 50.1013 240.108 50.1013Z" fill="black"/>
<path d="M380.425 136.632H369.534V178.867H380.425C383.548 178.867 386.123 176.301 386.123 173.188V142.311C386.123 139.198 383.548 136.632 380.425 136.632Z" fill="black"/>
<path d="M380.425 53.0039H369.534V95.2808H380.425C383.548 95.2808 386.123 92.7147 386.123 89.6018V58.6829C386.123 55.5279 383.548 53.0039 380.425 53.0039V53.0039Z" fill="black"/>
<path d="M536.867 0H499.002C497.44 0 495.878 0.0841331 494.358 0.252399C493.852 0.294466 493.345 0.420665 492.796 0.504798C491.741 0.630998 490.686 0.757198 489.672 0.96753C488.955 1.1358 488.237 1.34613 487.562 1.5144C486.76 1.72473 485.958 1.89299 485.198 2.14539C477.388 4.58525 470.465 9.00224 464.978 14.8074C464.809 14.9757 464.598 15.144 464.471 15.3122C464.091 15.6488 463.754 16.0274 463.458 16.3218C463.12 16.6584 462.741 17.0369 462.445 17.3314L460.419 19.3085C460.081 19.6451 459.701 20.0237 459.406 20.3181C459.068 20.6547 458.688 21.0333 458.393 21.3277C458.055 21.6643 457.675 22.0429 457.379 22.3373C457 22.6739 456.662 23.0525 456.366 23.3469L455.353 24.3565C455.015 24.6931 454.636 25.0717 454.34 25.3661C454.002 25.7027 453.622 26.0813 453.327 26.3757L451.301 28.3528C450.921 28.6894 450.583 29.068 450.288 29.3624C449.908 29.699 449.57 30.0776 449.274 30.372C448.937 30.7086 448.557 31.0872 448.261 31.3816C447.924 31.7182 447.544 32.0968 447.248 32.3912L444.251 35.378C443.913 35.7145 443.534 36.0931 443.238 36.3876C442.9 36.7241 442.52 37.1027 442.225 37.3972L442.14 37.4813C442.14 37.4813 442.098 37.313 442.056 37.271C441.761 36.2614 441.423 35.2518 441.085 34.2422C440.959 33.9477 440.874 33.6112 440.747 33.3167C440.368 32.3492 439.988 31.4237 439.565 30.4982C439.397 30.1617 439.228 29.8252 439.101 29.5307C438.679 28.6473 438.215 27.7639 437.75 26.9226C437.581 26.6702 437.413 26.4178 437.286 26.1233C436.357 24.5248 435.302 23.0104 434.204 21.5381C433.909 21.1595 433.656 20.8229 433.402 20.4443C432.938 19.8554 432.431 19.3085 431.925 18.7617C431.503 18.2989 431.081 17.7941 430.616 17.3314C430.11 16.8266 429.603 16.3218 429.054 15.817C428.548 15.3543 428.084 14.8916 427.535 14.4709C426.986 14.0082 426.479 13.5454 425.888 13.1248C425.34 12.7041 424.791 12.2834 424.2 11.8628C423.651 11.4421 423.102 11.0635 422.511 10.6849C421.878 10.2642 421.203 9.88564 420.527 9.46497C419.81 9.04431 419.092 8.62364 418.332 8.24504C417.361 7.74024 416.39 7.27751 415.42 6.85685C414.871 6.60445 414.28 6.39411 413.689 6.18378C412.929 5.88932 412.169 5.59485 411.409 5.34245C410.818 5.13212 410.227 4.96385 409.594 4.79559C408.792 4.58525 407.99 4.37492 407.188 4.16459C406.597 4.03839 406.006 3.91219 405.415 3.78599C404.486 3.61772 403.558 3.49152 402.629 3.36532C402.122 3.28119 401.616 3.23912 401.109 3.15499C399.674 3.02879 398.197 2.94466 396.677 2.94466H318.498C317.992 2.94466 317.527 2.98672 317.063 3.11292H316.979C315.374 3.53359 313.981 4.50112 313.053 5.80518C312.842 6.01552 312.588 6.22585 312.419 6.43618C312.04 6.73065 311.702 7.06718 311.406 7.44578C311.026 7.74024 310.689 8.07678 310.393 8.45537C310.013 8.74984 309.676 9.08637 309.38 9.46497C309 9.75944 308.663 10.096 308.367 10.4746C307.987 10.769 307.649 11.1056 307.354 11.4842C306.974 11.7786 306.636 12.1152 306.341 12.4938C305.961 12.7882 305.623 13.1248 305.328 13.5034C304.948 13.7978 304.61 14.1344 304.315 14.513C303.935 14.8074 303.597 15.144 303.301 15.5226C302.922 15.817 302.584 16.1536 302.288 16.5322C301.908 16.8266 301.571 17.1631 301.275 17.5417C300.895 17.8362 300.558 18.1727 300.262 18.5513C299.882 18.8458 299.544 19.1823 299.249 19.5609C298.869 19.8554 298.531 20.1919 298.236 20.5705C297.856 20.865 297.518 21.2015 297.223 21.5801C296.885 21.8325 296.59 22.127 296.336 22.4635C296.294 22.3794 296.21 22.2953 296.167 22.2111C294.099 18.9299 291.651 15.9012 288.865 13.251C288.738 13.1248 288.569 12.9986 288.442 12.8724C287.218 11.7366 285.952 10.6849 284.643 9.6753C284.348 9.46497 284.094 9.25464 283.799 9.04431C282.406 8.03471 280.971 7.10925 279.451 6.22585C279.367 6.18378 279.282 6.09965 279.156 6.05758C277.509 5.13212 275.778 4.33285 274.006 3.57566C273.794 3.49152 273.583 3.44946 273.372 3.36532C271.895 2.77639 270.375 2.27159 268.856 1.85093C268.391 1.72473 267.927 1.59853 267.42 1.47233C266.069 1.1358 264.719 0.883397 263.326 0.673065C262.819 0.588932 262.355 0.504798 261.848 0.462732C260.033 0.252399 258.176 0.0841331 256.276 0.0841331H218.411C216.849 0.0841331 215.287 0.168266 213.767 0.336532C213.261 0.378599 212.754 0.504798 212.248 0.546865C211.192 0.673065 210.137 0.799264 209.082 1.0096C208.406 1.1358 207.773 1.34613 207.14 1.5144C206.296 1.72473 205.409 1.89299 204.607 2.18746C196.798 4.62732 189.875 9.04431 184.387 14.8495C184.218 15.0178 184.007 15.2281 183.838 15.3964C183.501 15.7329 183.121 16.1115 182.825 16.406C182.487 16.7425 182.108 17.1211 181.812 17.4155C181.474 17.7521 181.094 18.1307 180.799 18.4251L179.786 19.4347C179.448 19.7713 179.068 20.1499 178.773 20.4443C178.435 20.7809 178.055 21.1595 177.76 21.4539C177.422 21.7905 177.042 22.1691 176.746 22.4635C176.367 22.8001 176.029 23.1787 175.733 23.4731L172.694 26.4599C172.356 26.7964 171.976 27.175 171.681 27.4695C171.343 27.806 170.963 28.1846 170.668 28.479C170.288 28.8156 169.95 29.1942 169.655 29.4886C169.275 29.8252 168.937 30.2038 168.642 30.4982C168.304 30.8348 167.924 31.2134 167.628 31.5078C167.291 31.8444 166.911 32.223 166.615 32.5174L165.602 33.527C165.264 33.8636 164.885 34.2422 164.589 34.5366C164.251 34.8732 163.871 35.2518 163.576 35.5462C163.238 35.8828 162.858 36.2614 162.563 36.5558C162.225 36.8924 161.845 37.271 161.55 37.5654L161.212 37.902C161.212 37.902 161.212 37.7758 161.17 37.7337C160.874 36.5979 160.537 35.5042 160.114 34.4525C160.03 34.2422 159.946 34.0318 159.861 33.7794C159.481 32.7698 159.059 31.7602 158.637 30.7506C158.51 30.4982 158.384 30.2458 158.257 29.9514C157.793 29.0259 157.328 28.0584 156.822 27.175C156.695 26.9647 156.569 26.7543 156.442 26.544C155.64 25.1558 154.753 23.8097 153.782 22.5056C153.318 21.8746 152.854 21.2015 152.347 20.5705C152.01 20.1499 151.587 19.7292 151.25 19.2665C150.701 18.6355 150.11 17.9624 149.519 17.3735C149.139 16.9949 148.759 16.6163 148.379 16.2377C147.746 15.6067 147.071 15.0178 146.395 14.4288C146.015 14.0923 145.635 13.7558 145.255 13.4613C144.496 12.8303 143.694 12.2834 142.891 11.6945C142.554 11.4421 142.216 11.1897 141.836 10.9794C140.739 10.2222 139.557 9.5491 138.375 8.87604C138.332 8.87604 138.248 8.79191 138.206 8.79191C136.982 8.11884 135.673 7.52991 134.364 6.94098C133.985 6.77271 133.562 6.64651 133.14 6.47825C132.212 6.09965 131.325 5.76312 130.354 5.46865C129.848 5.30038 129.341 5.17418 128.835 5.00592C127.948 4.75352 127.062 4.54319 126.175 4.33285C125.626 4.20665 125.12 4.08045 124.571 3.99632C123.6 3.82806 122.629 3.65979 121.658 3.53359C121.194 3.49152 120.73 3.40739 120.223 3.36532C118.746 3.23912 117.268 3.15499 115.791 3.15499H37.9918C37.4853 3.15499 37.0209 3.19706 36.5566 3.32326H36.4722C34.8681 3.74392 33.475 4.71145 32.5463 6.01552C32.3353 6.22585 32.082 6.43618 31.9131 6.64651C31.5332 6.94098 31.1955 7.27751 30.9 7.65611C30.5201 7.95058 30.1824 8.28711 29.8869 8.66571C29.507 8.96017 29.1693 9.29671 28.8738 9.6753C28.4939 9.96977 28.1562 10.3063 27.8607 10.6849C27.4808 10.9794 27.1431 11.3159 26.8476 11.6945C26.4676 11.989 26.1299 12.3255 25.8344 12.7041C25.4545 12.9986 25.1168 13.3351 24.8213 13.7137C24.4414 14.0082 24.1037 14.3447 23.8082 14.7233C23.4283 15.0178 23.0906 15.3543 22.7951 15.7329C22.4152 16.0274 22.0775 16.3639 21.782 16.7425C21.4021 17.0369 21.0644 17.3735 20.7689 17.7521C20.3889 18.0465 20.0512 18.3831 19.7558 18.7617C19.3758 19.0561 19.0381 19.3927 18.7426 19.7713C18.3627 20.0657 18.025 20.4023 17.7295 20.7809C17.3496 21.0753 17.0119 21.4119 16.7164 21.7905C16.3365 22.0849 15.9988 22.4215 15.7033 22.8001C15.3234 23.0945 14.9857 23.4311 14.6902 23.8097C14.3103 24.1041 13.9726 24.4407 13.6771 24.8193C13.2971 25.1137 12.9594 25.4503 12.6639 25.8289C12.284 26.1233 11.9463 26.4599 11.6508 26.8385C11.2709 27.1329 10.9332 27.4695 10.6377 27.848C10.2578 28.1425 9.92009 28.479 9.6246 28.8576C9.24468 29.1521 8.90697 29.4886 8.61148 29.8672C8.23156 30.1617 7.89386 30.4982 7.59837 30.8768C7.21845 31.1713 6.88074 31.5078 6.58525 31.8864C6.20533 32.1809 5.86763 32.5174 5.57213 32.896C5.19222 33.1905 4.85451 33.527 4.55902 33.9056C4.1791 34.2001 3.8414 34.5366 3.5459 34.9152C3.16599 35.2097 2.82828 35.5462 2.53279 35.9248C0.928689 37.1868 0 39.0377 0 40.9728V253.493C0 257.111 2.95492 260.055 6.58525 260.055H55.2992C57.2832 260.055 59.0984 259.13 60.3648 257.531C60.7447 257.237 61.0824 256.9 61.3779 256.522C61.7578 256.227 62.0955 255.891 62.391 255.512C62.7709 255.218 63.1087 254.881 63.4041 254.503C63.7841 254.208 64.1218 253.872 64.4173 253.493C64.7972 253.199 65.1349 252.862 65.4304 252.483C65.8103 252.189 66.148 251.852 66.4435 251.474C66.8234 251.179 67.1611 250.843 67.4566 250.464C67.8365 250.17 68.1742 249.833 68.4697 249.455C68.8496 249.16 69.1873 248.824 69.4828 248.445C69.6939 248.277 69.905 248.066 70.116 247.898V253.409C70.116 257.027 73.071 259.971 76.7013 259.971H125.542C127.526 259.971 129.341 259.046 130.607 257.447C130.987 257.153 131.325 256.816 131.621 256.438C132 256.143 132.338 255.807 132.634 255.428C133.014 255.134 133.351 254.797 133.647 254.418C134.027 254.124 134.364 253.787 134.66 253.409C135.04 253.114 135.378 252.778 135.673 252.399C136.053 252.105 136.391 251.768 136.686 251.39C137.066 251.095 137.404 250.759 137.699 250.38C138.079 250.086 138.417 249.749 138.712 249.37C139.092 249.076 139.43 248.739 139.726 248.361C140.105 248.066 140.443 247.73 140.739 247.351C141.119 247.057 141.456 246.72 141.752 246.342C142.132 246.047 142.469 245.711 142.765 245.332C143.145 245.038 143.482 244.701 143.778 244.322C144.158 244.028 144.496 243.691 144.791 243.313C145.171 243.018 145.509 242.682 145.804 242.303C146.184 242.009 146.522 241.672 146.817 241.294C147.113 241.041 147.366 240.789 147.619 240.536C156.104 254.334 171.132 262.79 187.469 262.79H225.503C238.293 262.79 250.282 257.7 259.189 248.529C259.526 248.193 259.906 247.814 260.202 247.52C260.54 247.183 260.919 246.804 261.215 246.51C261.595 246.173 261.933 245.795 262.228 245.5C262.566 245.164 262.946 244.785 263.241 244.491C263.621 244.154 263.959 243.776 264.254 243.481C264.634 243.145 264.972 242.766 265.267 242.472C265.605 242.135 265.985 241.756 266.281 241.462C266.618 241.125 266.998 240.747 267.294 240.452C267.631 240.116 268.011 239.737 268.307 239.443L270.333 237.424C270.713 237.087 271.051 236.708 271.346 236.414C271.726 236.077 272.064 235.699 272.359 235.404C272.697 235.068 273.077 234.689 273.372 234.395C273.71 234.058 274.09 233.68 274.385 233.385L275.399 232.376C275.736 232.039 276.116 231.703 276.412 231.366L277.425 230.356C277.762 230.02 278.142 229.641 278.438 229.347L280.464 227.328C280.717 227.075 280.971 226.865 281.182 226.612V253.156C281.182 256.774 284.137 259.719 287.767 259.719H365.946C378.736 259.719 390.725 254.629 399.632 245.458C399.97 245.122 400.349 244.743 400.645 244.449C400.983 244.112 401.363 243.734 401.658 243.439C401.996 243.103 402.376 242.724 402.671 242.429C403.009 242.093 403.389 241.714 403.684 241.42C404.022 241.083 404.402 240.705 404.697 240.41L405.711 239.401C406.048 239.064 406.428 238.686 406.724 238.391L408.75 236.372C409.088 236.035 409.467 235.657 409.763 235.362C410.143 235.026 410.481 234.647 410.776 234.353C411.156 234.016 411.494 233.638 411.789 233.343C412.127 233.007 412.507 232.628 412.802 232.334C413.14 231.997 413.52 231.66 413.815 231.324L414.829 230.314C415.166 229.978 415.546 229.599 415.842 229.305C416.179 228.968 416.559 228.59 416.855 228.295C417.193 227.959 417.572 227.58 417.868 227.286C418.206 226.949 418.586 226.57 418.881 226.276C419.219 225.939 419.599 225.561 419.894 225.266C420.232 224.93 420.612 224.551 420.907 224.257L421.92 223.247C425.466 245.627 444.927 262.537 468.017 262.537H506.051C518.842 262.537 530.83 257.447 539.737 248.277C540.075 247.94 540.455 247.562 540.75 247.267C541.088 246.931 541.468 246.594 541.763 246.258L543.79 244.238C544.127 243.902 544.507 243.523 544.803 243.229C545.183 242.892 545.52 242.514 545.816 242.219C546.154 241.883 546.534 241.504 546.829 241.21C547.167 240.873 547.547 240.494 547.842 240.2C548.18 239.863 548.56 239.485 548.855 239.19L553.879 234.184C554.216 233.848 554.596 233.469 554.892 233.175L555.905 232.165C556.243 231.829 556.623 231.492 556.918 231.156L557.931 230.146C558.269 229.81 558.649 229.431 558.944 229.136C559.282 228.8 559.662 228.421 559.957 228.127C560.337 227.79 560.675 227.412 560.97 227.117C561.35 226.781 561.688 226.402 561.984 226.108C562.321 225.771 562.701 225.393 562.997 225.098L567.007 221.102C567.387 220.765 567.725 220.387 568.02 220.092C568.4 219.756 568.738 219.377 569.033 219.083C569.244 218.914 569.371 218.746 569.582 218.536C575.407 213.067 579.882 206.126 582.33 198.302C582.373 198.091 582.415 197.923 582.499 197.713C582.879 196.451 583.217 195.147 583.512 193.843C583.723 192.875 583.808 191.908 583.977 190.94C584.061 190.351 584.188 189.804 584.23 189.215C584.399 187.659 584.483 186.06 584.483 184.462V46.9042C584.483 21.0333 563.377 0 537.416 0H536.867ZM35.6279 9.50704C35.6279 8.20298 36.6832 7.15131 37.9918 7.15131H116.171C139.81 7.15131 159.017 26.2916 159.017 49.8489V99.6977C159.017 123.381 157.835 125.19 141.203 127.882L139.43 128.177V133.056L141.203 133.351C157.835 136.001 159.017 137.852 159.017 161.536V222.448C159.017 223.752 157.962 224.804 156.653 224.804H107.812C106.504 224.804 105.448 223.752 105.448 222.448V160.231C105.448 156.866 102.958 154.216 99.7497 154.216H94.5574C91.3492 154.216 88.8587 156.866 88.8587 160.231V222.448C88.8587 223.752 87.8033 224.804 86.4947 224.804H37.9918C36.6832 224.804 35.6279 223.752 35.6279 222.448V9.50704V9.50704ZM256.529 227.664H218.495C195.067 227.664 175.987 208.65 175.987 185.303V46.9042C175.987 23.3469 195.194 4.20665 218.833 4.20665H256.529C280.169 4.20665 299.376 23.3469 299.376 46.9042V185.009C299.376 208.566 280.169 227.706 256.529 227.706V227.664ZM396.846 224.719H318.667C317.358 224.719 316.303 223.668 316.303 222.364V9.50704C316.303 8.20298 317.358 7.15131 318.667 7.15131H396.846C420.485 7.15131 439.692 26.2916 439.692 49.8489V73.9109C439.354 90.401 439.059 107.438 421.498 113.664L420.105 114.169V117.786L421.498 118.291C439.059 124.517 439.354 141.554 439.65 158.044V182.106C439.65 205.663 420.443 224.804 396.804 224.804L396.846 224.719ZM579.713 184.967C579.713 208.524 560.506 227.664 536.867 227.664H498.833C475.404 227.664 456.324 208.65 456.324 185.303V46.9042C456.324 23.3469 475.531 4.20665 499.17 4.20665H536.867C560.506 4.20665 579.713 23.3469 579.713 46.9042V185.009V184.967Z" fill="black"/>
<path d="M520.446 50.1013H515.253C512.13 50.1013 509.555 52.6674 509.555 55.7803V175.796C509.555 179.161 512.045 181.812 515.253 181.812H520.446C523.654 181.812 526.144 179.161 526.144 175.796V55.7803C526.144 52.6674 523.569 50.1013 520.446 50.1013Z" fill="black"/>
<path d="M727.206 110.803V59.1455C727.206 56.0326 724.63 53.4666 721.507 53.4666H710.616V116.482H721.507C724.63 116.482 727.206 113.916 727.206 110.803Z" fill="black"/>
<path d="M860.05 77.5286H855.196L848.357 161.031H867.269L860.05 77.5286Z" fill="black"/>
<path d="M1377.63 3.40747H1336C1335.5 3.40747 1335.03 3.44954 1334.57 3.57574H1334.48C1332.88 3.9964 1331.49 4.96393 1330.56 6.268C1330.35 6.47833 1330.09 6.68866 1329.88 6.94106C1329.5 7.23553 1329.16 7.57206 1328.87 7.95066C1328.49 8.24512 1328.15 8.58166 1327.86 8.96025C1327.48 9.25472 1327.14 9.59125 1326.84 9.96985C1326.46 10.2643 1326.13 10.6008 1325.83 10.9794C1325.45 11.2739 1325.11 11.6104 1324.82 11.989C1324.44 12.2835 1324.1 12.62 1323.8 12.9986C1323.42 13.2931 1323.09 13.6296 1322.79 14.0082C1322.41 14.3027 1322.07 14.6392 1321.78 15.0178C1321.4 15.3123 1321.06 15.6488 1320.76 16.0274C1320.38 16.3219 1320.05 16.6584 1319.75 17.037C1319.37 17.3315 1319.03 17.668 1318.74 18.0466C1318.36 18.3411 1318.02 18.6776 1317.73 19.0562C1317.35 19.3507 1317.01 19.6872 1316.71 20.0658C1316.33 20.3603 1315.99 20.6968 1315.7 21.0754C1315.32 21.3699 1314.98 21.7064 1314.69 22.085C1314.31 22.3795 1313.97 22.716 1313.67 23.0946L1313.55 23.1787L1309.54 8.37132C1308.78 5.5108 1306.16 3.53367 1303.16 3.53367H1260.53C1260.02 3.53367 1259.56 3.6178 1259.09 3.70194H1259.01C1257.4 4.1226 1256.01 5.04807 1255.08 6.3942C1254.87 6.60453 1254.62 6.81486 1254.41 7.06726C1254.03 7.36173 1253.69 7.69826 1253.39 8.07686C1253.01 8.37132 1252.67 8.70786 1252.38 9.08645C1252 9.38092 1251.66 9.71745 1251.37 10.0961C1250.99 10.3905 1250.65 10.727 1250.35 11.1056C1249.97 11.4001 1249.64 11.7366 1249.34 12.1152C1248.96 12.4097 1248.62 12.7462 1248.33 13.1248C1247.95 13.4193 1247.61 13.7558 1247.31 14.1344C1246.93 14.4289 1246.6 14.7654 1246.3 15.144C1245.92 15.4385 1245.58 15.775 1245.29 16.1536C1245.2 16.2378 1245.12 16.2798 1245.03 16.364V10.1802C1245.03 6.56246 1242.08 3.6178 1238.45 3.6178H1129.67C1129.16 3.6178 1128.69 3.65987 1128.23 3.78607H1128.15C1126.54 4.20673 1125.15 5.17427 1124.22 6.47833C1124.01 6.68866 1123.76 6.89899 1123.54 7.15139C1123.16 7.44586 1122.83 7.78239 1122.53 8.16099C1122.15 8.45546 1121.81 8.79199 1121.52 9.17059C1121.14 9.46505 1120.8 9.80159 1120.51 10.1802C1120.13 10.4747 1119.79 10.8112 1119.49 11.1898C1119.11 11.4842 1118.77 11.8208 1118.48 12.1994C1118.1 12.4938 1117.76 12.8304 1117.47 13.209C1117.09 13.5034 1116.75 13.84 1116.45 14.2186C1116.07 14.513 1115.74 14.8496 1115.44 15.2282C1115.1 15.4806 1114.81 15.775 1114.55 16.1116V10.2643C1114.55 6.64659 1111.6 3.70194 1107.97 3.70194H1041.65C1040.93 3.70194 1040.26 3.8702 1039.62 4.08054C1039.46 4.1226 1039.29 4.20673 1039.12 4.2488C1038.57 4.5012 1038.06 4.79567 1037.6 5.17427C1037.35 5.3846 1037.13 5.59493 1036.92 5.84733C1036.8 5.97353 1036.71 6.05766 1036.59 6.18386C1036.21 6.47833 1035.87 6.81486 1035.57 7.19346C1035.19 7.48793 1034.9 7.82446 1034.56 8.20306C1034.18 8.49752 1033.84 8.83405 1033.55 9.21265C1033.17 9.50712 1032.83 9.84365 1032.53 10.2223C1032.15 10.5167 1031.82 10.8532 1031.52 11.2318C1031.14 11.5263 1030.8 11.8628 1030.51 12.2414C1030.13 12.5359 1029.79 12.8724 1029.49 13.251C1029.11 13.5455 1028.78 13.882 1028.48 14.2606C1028.1 14.5551 1027.76 14.8916 1027.47 15.2702C1027.09 15.5647 1026.75 15.9012 1026.45 16.2798C1026.07 16.5743 1025.74 16.9108 1025.44 17.2894C1025.06 17.5839 1024.72 17.9204 1024.43 18.299C1024.05 18.5935 1023.71 18.93 1023.42 19.3086C1023.04 19.6031 1022.7 19.9396 1022.4 20.3182C1022.02 20.6127 1021.68 20.9492 1021.39 21.3278C1021.05 21.6223 1020.71 21.9588 1020.38 22.3374C1020 22.6319 1019.66 22.9684 1019.36 23.347C1018.98 23.6415 1018.65 23.978 1018.35 24.3566C1017.97 24.6511 1017.63 24.9876 1017.34 25.3662C1016.96 25.6607 1016.62 25.9972 1016.32 26.3758C1015.94 26.6703 1015.61 27.0068 1015.31 27.3854C1014.93 27.6799 1014.59 28.0164 1014.3 28.395C1013.92 28.6895 1013.58 29.026 1013.28 29.4046C1012.9 29.6991 1012.57 30.0356 1012.27 30.4142C1012.02 30.5825 1011.81 30.7928 1011.6 31.0452L1008.6 9.54919C1008.26 7.15139 1006.61 5.17427 1004.42 4.33293C1003.7 4.03847 1002.9 3.91227 1002.1 3.91227H935.781C935.274 3.91227 934.81 3.95434 934.345 4.08054H934.261C932.657 4.5012 931.264 5.46873 930.377 6.77279C930.166 6.98313 929.913 7.19346 929.702 7.44586C929.322 7.74032 928.984 8.07686 928.689 8.45546C928.309 8.74992 927.971 9.08645 927.676 9.46505C927.296 9.75952 926.958 10.0961 926.663 10.4746C926.283 10.7691 925.945 11.1056 925.649 11.4842C925.27 11.7787 924.932 12.1152 924.636 12.4938C924.257 12.7883 923.919 13.1248 923.623 13.5034C923.243 13.7979 922.906 14.1344 922.61 14.513C922.23 14.8075 921.893 15.144 921.597 15.5226C921.217 15.8171 920.879 16.1536 920.584 16.5322C920.204 16.8267 919.866 17.1632 919.571 17.5418C919.191 17.8363 918.853 18.1728 918.558 18.5514C918.178 18.8459 917.84 19.1824 917.545 19.561C917.165 19.8555 916.827 20.192 916.532 20.5706C916.152 20.8651 915.814 21.2016 915.518 21.5802C915.138 21.8747 914.801 22.2112 914.505 22.5898C914.125 22.8843 913.788 23.2208 913.492 23.5994C913.112 23.8939 912.775 24.2304 912.479 24.609C912.099 24.9035 911.761 25.24 911.466 25.6186C911.086 25.9131 910.748 26.2496 910.453 26.6282C910.073 26.9227 909.735 27.2592 909.44 27.6378C909.06 27.9323 908.722 28.2688 908.427 28.6474C908.047 28.9419 907.709 29.2784 907.413 29.657C907.034 29.9515 906.696 30.288 906.4 30.6666C906.02 30.9611 905.683 31.2976 905.387 31.6762C905.007 31.9707 904.67 32.3072 904.374 32.6858C903.994 32.9802 903.656 33.3168 903.361 33.6954C902.981 33.9898 902.643 34.3264 902.348 34.705C901.968 34.9994 901.63 35.336 901.335 35.7146C900.955 36.009 900.617 36.3456 900.322 36.7242C898.718 37.9862 897.789 39.8371 897.789 41.7722V64.0674L886.94 9.42299C886.349 6.35213 883.605 4.1226 880.481 4.1226H833.372C832.696 4.1226 832.021 4.2488 831.43 4.45913C831.261 4.5012 831.092 4.58533 830.923 4.6274C830.417 4.83773 829.91 5.09013 829.488 5.46873C829.235 5.67906 829.024 5.8894 828.77 6.1418C828.644 6.31006 828.475 6.43626 828.306 6.60453C827.926 6.89899 827.588 7.23553 827.293 7.61412C826.913 7.90859 826.575 8.24512 826.28 8.62372C825.9 8.91819 825.562 9.25472 825.267 9.63332C824.887 9.92778 824.549 10.2643 824.254 10.6429C823.874 10.9374 823.536 11.2739 823.24 11.6525C822.861 11.947 822.523 12.2835 822.227 12.6621C821.847 12.9566 821.51 13.2931 821.214 13.6717C820.834 13.9662 820.497 14.3027 820.201 14.6813C819.821 14.9758 819.483 15.3123 819.188 15.6909C818.808 15.9854 818.47 16.3219 818.175 16.7005C817.795 16.995 817.457 17.3315 817.162 17.7101C816.782 18.0046 816.444 18.3411 816.149 18.7197C815.769 19.0142 815.431 19.3507 815.136 19.7293C814.756 20.0238 814.418 20.3603 814.122 20.7389C813.742 21.0334 813.405 21.3699 813.109 21.7485C812.729 22.0429 812.392 22.3795 812.096 22.7581C811.716 23.0525 811.379 23.3891 811.083 23.7677C810.703 24.0621 810.365 24.3987 810.07 24.7773C809.69 25.0717 809.352 25.4083 809.057 25.7869C808.677 26.0813 808.339 26.4179 808.044 26.7965C807.664 27.0909 807.326 27.4275 807.031 27.8061C806.651 28.1005 806.313 28.4371 806.017 28.8157C805.638 29.1101 805.3 29.4467 805.004 29.8253C804.624 30.1197 804.287 30.4563 803.991 30.8349C803.611 31.1293 803.274 31.4659 802.978 31.8445C802.598 32.1389 802.26 32.4755 801.965 32.854C801.585 33.1485 801.247 33.485 800.952 33.8636C800.572 34.1581 800.234 34.4946 799.939 34.8732C799.559 35.1677 799.221 35.5042 798.926 35.8828C798.546 36.1773 798.208 36.5138 797.913 36.8924C796.646 37.86 795.802 39.2061 795.506 40.7205L784.024 98.562V50.2696C784.024 24.4407 762.918 3.40747 736.999 3.40747H658.862C658.398 3.40747 657.934 3.4916 657.469 3.57574H657.343C655.739 3.9964 654.346 4.96393 653.459 6.268C653.248 6.47833 652.995 6.68866 652.784 6.94106C652.404 7.23553 652.066 7.57206 651.771 7.95066C651.391 8.24512 651.053 8.58166 650.758 8.96025C650.378 9.25472 650.04 9.59125 649.744 9.96985C649.364 10.2643 649.027 10.6008 648.731 10.9794C648.351 11.2739 648.014 11.6104 647.718 11.989C647.338 12.2835 647.001 12.62 646.705 12.9986C646.325 13.2931 645.987 13.6296 645.692 14.0082C645.312 14.3027 644.974 14.6392 644.679 15.0178C644.299 15.3123 643.961 15.6488 643.666 16.0274C643.286 16.3219 642.948 16.6584 642.653 17.037C642.273 17.3315 641.935 17.668 641.639 18.0466C641.26 18.3411 640.922 18.6776 640.626 19.0562C640.246 19.3507 639.909 19.6872 639.613 20.0658C639.233 20.3603 638.896 20.6968 638.6 21.0754C638.22 21.3699 637.883 21.7064 637.587 22.085C637.207 22.3795 636.869 22.716 636.574 23.0946C636.194 23.3891 635.856 23.7256 635.561 24.1042C635.181 24.3987 634.843 24.7352 634.548 25.1138C634.168 25.4083 633.83 25.7448 633.535 26.1234C633.155 26.4179 632.817 26.7544 632.521 27.133C632.141 27.4275 631.804 27.764 631.508 28.1426C631.128 28.4371 630.791 28.7736 630.495 29.1522C630.115 29.4467 629.778 29.7832 629.482 30.1618C629.102 30.4563 628.764 30.7928 628.469 31.1714C628.089 31.4659 627.751 31.8024 627.456 32.181C627.076 32.4755 626.738 32.812 626.443 33.1906C626.063 33.485 625.725 33.8216 625.43 34.2002C625.05 34.4946 624.712 34.8312 624.416 35.2098C624.037 35.5042 623.699 35.8408 623.403 36.2194C621.799 37.4814 620.871 39.3323 620.871 41.2674V253.788C620.871 257.405 623.826 260.35 627.456 260.35H675.917C677.901 260.35 679.716 259.424 680.982 257.826C681.362 257.531 681.7 257.195 681.995 256.816C682.375 256.522 682.713 256.185 683.008 255.807C683.388 255.512 683.726 255.176 684.021 254.797C684.401 254.503 684.739 254.166 685.035 253.788C685.414 253.493 685.752 253.157 686.048 252.778C686.428 252.483 686.765 252.147 687.061 251.768C687.441 251.474 687.778 251.137 688.074 250.759C688.454 250.464 688.792 250.128 689.087 249.749C689.467 249.455 689.805 249.118 690.1 248.74C690.311 248.571 690.522 248.403 690.691 248.193V253.703C690.691 257.321 693.646 260.266 697.276 260.266H746.033C748.017 260.266 749.832 259.34 751.098 257.742C751.478 257.447 751.816 257.111 752.111 256.732C752.491 256.438 752.829 256.101 753.124 255.723L753.251 255.638C753.504 256.438 753.926 257.195 754.433 257.826C755.699 259.34 757.557 260.224 759.541 260.224H814.418L814.502 259.214H815.431L815.515 258.205H816.444L816.529 257.195H817.457L817.542 256.185H818.47L818.555 255.176H819.483L819.568 254.166H820.497L820.581 253.157H821.51L821.594 252.147H822.523L822.607 251.137H823.536L823.62 250.128H824.549L824.633 249.118H825.562L825.647 248.109H826.575L826.66 247.099H827.588L827.673 246.089H828.602L828.686 245.08H829.615L829.699 244.07H830.628L830.712 243.061H831.641L831.725 242.051H832.654L832.738 241.252H834.807L836.453 260.098H891.288C893.314 260.098 895.129 259.214 896.396 257.658C896.776 257.363 897.113 257.027 897.409 256.648C897.62 256.48 897.873 256.269 898.042 256.059C899.013 258.415 901.377 260.098 904.121 260.098H952.539C954.523 260.098 956.338 259.172 957.605 257.574C957.985 257.279 958.322 256.943 958.618 256.564C958.998 256.269 959.336 255.933 959.631 255.554C960.011 255.26 960.349 254.923 960.644 254.545C961.024 254.25 961.362 253.914 961.657 253.535C962.037 253.241 962.375 252.904 962.67 252.526C963.05 252.231 963.388 251.895 963.684 251.516C964.063 251.221 964.401 250.885 964.697 250.506C965.077 250.212 965.414 249.875 965.71 249.497C966.09 249.202 966.427 248.866 966.723 248.487C967.103 248.193 967.441 247.856 967.736 247.478C967.905 247.351 968.074 247.183 968.243 247.015L968.96 254.082C969.298 257.447 972.126 260.013 975.503 260.013H1004.88C1006.87 260.013 1008.68 259.13 1009.95 257.531C1010.33 257.237 1010.67 256.9 1010.96 256.522C1011.34 256.227 1011.68 255.891 1011.98 255.512C1012.36 255.218 1012.69 254.881 1012.99 254.503C1013.37 254.208 1013.71 253.872 1014 253.493C1014.38 253.199 1014.72 252.862 1015.01 252.483C1015.39 252.189 1015.73 251.852 1016.03 251.474C1016.41 251.179 1016.75 250.843 1017.04 250.464C1017.42 250.17 1017.76 249.833 1018.05 249.455C1018.43 249.16 1018.77 248.824 1019.07 248.445C1019.45 248.151 1019.78 247.814 1020.08 247.435C1020.46 247.141 1020.8 246.804 1021.09 246.426C1021.14 246.384 1021.22 246.342 1021.26 246.3V253.367C1021.26 256.985 1024.22 259.929 1027.85 259.929H1076.27C1078.25 259.929 1080.07 259.004 1081.33 257.405C1081.71 257.111 1082.05 256.774 1082.34 256.396C1082.72 256.101 1083.06 255.765 1083.36 255.386C1083.74 255.092 1084.08 254.755 1084.37 254.376C1084.75 254.082 1085.09 253.745 1085.38 253.367C1085.76 253.072 1086.1 252.736 1086.4 252.357C1086.78 252.063 1087.11 251.726 1087.41 251.348C1087.79 251.053 1088.13 250.717 1088.42 250.338C1088.8 250.044 1089.14 249.707 1089.44 249.328C1089.82 249.034 1090.15 248.697 1090.45 248.319C1090.79 248.066 1091.08 247.772 1091.34 247.435V253.283C1091.34 256.9 1094.29 259.845 1097.92 259.845H1206.7C1208.69 259.845 1210.5 258.92 1211.77 257.321C1212.15 257.027 1212.49 256.69 1212.78 256.312C1213.16 256.017 1213.5 255.681 1213.8 255.302C1214.18 255.007 1214.51 254.671 1214.81 254.292C1215.19 253.998 1215.53 253.661 1215.82 253.283C1216.2 252.988 1216.54 252.652 1216.84 252.273C1217.22 251.979 1217.55 251.642 1217.85 251.264C1218.23 250.969 1218.57 250.633 1218.86 250.254C1219.24 249.959 1219.58 249.623 1219.88 249.244C1220.26 248.95 1220.59 248.613 1220.89 248.235C1221.27 247.94 1221.61 247.604 1221.9 247.225C1221.99 247.141 1222.07 247.099 1222.15 247.015V253.199C1222.15 256.816 1225.11 259.761 1228.74 259.761H1270.66C1272.64 259.761 1274.46 258.836 1275.72 257.237C1276.1 256.943 1276.44 256.606 1276.74 256.227C1277.12 255.933 1277.45 255.596 1277.75 255.218C1278.13 254.923 1278.47 254.587 1278.76 254.208C1279.14 253.914 1279.48 253.577 1279.78 253.199C1280.16 252.904 1280.49 252.568 1280.79 252.189C1281.17 251.895 1281.51 251.558 1281.8 251.179C1282.18 250.885 1282.52 250.548 1282.81 250.17C1283.19 249.875 1283.53 249.539 1283.83 249.16C1284.21 248.866 1284.55 248.529 1284.84 248.151C1285.22 247.856 1285.56 247.52 1285.85 247.141C1286.23 246.847 1286.57 246.51 1286.87 246.131C1287.25 245.837 1287.59 245.5 1287.88 245.122C1288.26 244.827 1288.6 244.491 1288.89 244.112C1289.27 243.818 1289.61 243.481 1289.91 243.103C1290.29 242.808 1290.62 242.472 1290.92 242.093C1291.3 241.799 1291.64 241.462 1291.93 241.083C1292.19 240.873 1292.44 240.621 1292.69 240.368L1296.45 254.713C1297.21 257.616 1299.83 259.593 1302.82 259.593H1345.75C1347.74 259.593 1349.55 258.667 1350.82 257.069C1351.2 256.774 1351.54 256.438 1351.83 256.059C1352.21 255.765 1352.55 255.428 1352.85 255.05C1353.23 254.755 1353.56 254.419 1353.86 254.04C1354.24 253.745 1354.58 253.409 1354.87 253.03C1355.25 252.736 1355.59 252.399 1355.89 252.021C1356.27 251.726 1356.6 251.39 1356.9 251.011C1357.28 250.717 1357.62 250.38 1357.91 250.002C1358.29 249.707 1358.63 249.371 1358.93 248.992C1359.31 248.697 1359.64 248.361 1359.94 247.982C1360.32 247.688 1360.66 247.351 1360.95 246.973C1361.33 246.678 1361.67 246.342 1361.96 245.963C1362.34 245.669 1362.68 245.332 1362.98 244.954C1363.36 244.659 1363.7 244.323 1363.99 243.944C1364.37 243.649 1364.71 243.313 1365 242.934C1365.38 242.64 1365.72 242.303 1366.02 241.925C1366.4 241.63 1366.73 241.294 1367.03 240.915C1367.41 240.621 1367.75 240.284 1368.04 239.906C1368.42 239.611 1368.76 239.275 1369.06 238.896C1369.44 238.601 1369.77 238.265 1370.07 237.886C1370.45 237.592 1370.79 237.255 1371.08 236.877C1371.46 236.582 1371.8 236.246 1372.1 235.867C1372.48 235.573 1372.81 235.236 1373.11 234.858C1373.49 234.563 1373.83 234.227 1374.12 233.848C1374.5 233.554 1374.84 233.217 1375.14 232.838C1375.51 232.544 1375.85 232.207 1376.15 231.829C1376.53 231.534 1376.87 231.198 1377.16 230.819C1377.54 230.525 1377.88 230.188 1378.17 229.81C1378.55 229.515 1378.89 229.179 1379.19 228.8C1379.57 228.506 1379.91 228.169 1380.2 227.79C1380.45 227.58 1380.62 227.37 1380.83 227.159C1382.14 226.234 1383.11 224.888 1383.54 223.289V223.205C1383.66 222.742 1383.75 222.28 1383.75 221.775V9.96985C1383.75 6.35213 1380.79 3.40747 1377.16 3.40747H1377.63ZM1127.6 9.96985C1127.6 8.66579 1128.65 7.61412 1129.96 7.61412H1238.74C1240.05 7.61412 1241.11 8.66579 1241.11 9.96985V51.1109C1241.11 52.415 1240.05 53.4667 1238.74 53.4667H1187.37C1183.74 53.4667 1180.79 56.4113 1180.79 60.029V86.8675C1180.79 90.4852 1183.74 93.4299 1187.37 93.4299H1226.67C1227.98 93.4299 1229.04 94.4815 1229.04 95.7856V136.885C1229.04 138.189 1227.98 139.24 1226.67 139.24H1187.37C1183.74 139.24 1180.79 142.185 1180.79 145.803V172.641C1180.79 176.259 1183.74 179.204 1187.37 179.204H1238.74C1240.05 179.204 1241.11 180.255 1241.11 181.559V222.7C1241.11 224.004 1240.05 225.056 1238.74 225.056H1129.96C1128.65 225.056 1127.6 224.004 1127.6 222.7V9.96985ZM933.923 9.96985C933.923 8.66579 934.979 7.61412 936.287 7.61412H1002.6C1003.79 7.61412 1004.8 8.49752 1004.93 9.63332L1020 117.113H1024.64L1039.71 9.63332C1039.88 8.45546 1040.89 7.61412 1042.03 7.61412H1108.35C1109.66 7.61412 1110.71 8.66579 1110.71 9.96985V222.7C1110.71 224.004 1109.66 225.056 1108.35 225.056H1059.93C1058.62 225.056 1057.57 224.004 1057.57 222.7V89.5177H1052.54L1039.37 222.911C1039.25 224.131 1038.23 225.014 1037.01 225.014H1007.63C1006.4 225.014 1005.39 224.089 1005.26 222.911L992.093 89.5177H987.07V222.658C987.07 223.962 986.014 225.014 984.706 225.014H936.287C934.979 225.014 933.923 223.962 933.923 222.658V9.96985V9.96985ZM831.768 9.50712C831.979 8.41339 832.949 7.61412 834.089 7.61412H881.199C882.339 7.61412 883.31 8.41339 883.521 9.50712L925.776 222.238C925.903 222.911 925.776 223.626 925.27 224.173C924.805 224.72 924.13 225.056 923.454 225.056H872.461L870.815 206.21H844.474L842.827 225.056H791.834C791.116 225.056 790.441 224.762 790.019 224.173C789.554 223.626 789.385 222.911 789.512 222.238L831.768 9.50712V9.50712ZM657.427 9.96985C657.427 8.66579 658.483 7.61412 659.791 7.61412H737.885C761.483 7.61412 780.69 26.7544 780.69 50.2696V100.076C780.69 123.718 779.508 125.569 762.918 128.219L761.145 128.513V133.393L762.918 133.688C779.55 136.338 780.69 138.189 780.69 161.83V222.7C780.69 224.004 779.634 225.056 778.326 225.056H729.569C728.261 225.056 727.206 224.004 727.206 222.7V160.526C727.206 157.161 724.715 154.51 721.507 154.51H716.315C713.106 154.51 710.616 157.161 710.616 160.526V222.7C710.616 224.004 709.56 225.056 708.252 225.056H659.791C658.483 225.056 657.427 224.004 657.427 222.7V9.96985ZM1379.99 222.7C1379.99 224.004 1378.93 225.056 1377.63 225.056H1334.69C1333.64 225.056 1332.67 224.341 1332.42 223.289L1309.7 136.969H1304.98V222.658C1304.98 223.962 1303.92 225.014 1302.61 225.014H1260.7C1259.39 225.014 1258.33 223.962 1258.33 222.658V9.96985C1258.33 8.66579 1259.39 7.61412 1260.7 7.61412H1303.33C1304.39 7.61412 1305.31 8.32926 1305.61 9.33885L1328.91 95.3229H1333.64V9.96985C1333.64 8.66579 1334.69 7.61412 1336 7.61412H1377.63C1378.93 7.61412 1379.99 8.66579 1379.99 9.96985V222.7Z" fill="black"/>
<path d="M37.9919 224.762H86.4948C87.8034 224.762 88.8587 223.71 88.8587 222.406V160.19C88.8587 156.824 91.3493 154.174 94.5575 154.174H99.7497C102.958 154.174 105.448 156.824 105.448 160.19V222.406C105.448 223.71 106.504 224.762 107.812 224.762H156.653C157.962 224.762 159.017 223.71 159.017 222.406V161.494C159.017 137.852 157.835 136.001 141.203 133.309L139.43 133.015V128.135L141.203 127.84C157.835 125.19 159.017 123.339 159.017 99.6558V49.8069C159.017 26.2496 139.81 7.10938 116.171 7.10938H37.9919C36.6833 7.10938 35.6279 8.16104 35.6279 9.4651V222.406C35.6279 223.71 36.6833 224.762 37.9919 224.762ZM88.8587 53.004H99.7497C102.873 53.004 105.448 55.57 105.448 58.683V110.383C105.448 113.538 102.873 116.062 99.7497 116.062H88.8587V53.004Z" fill="#FFF9EE"/>
<path d="M299.375 185.009V46.9041C299.375 23.3468 280.168 4.20654 256.529 4.20654H218.833C195.193 4.20654 175.986 23.3468 175.986 46.9041V185.303C175.986 208.65 195.067 227.664 218.495 227.664H256.529C280.168 227.664 299.375 208.524 299.375 184.966V185.009ZM245.807 175.838C245.807 179.203 243.316 181.854 240.108 181.854H234.916C231.708 181.854 229.217 179.203 229.217 175.838V55.7801C229.217 52.6672 231.792 50.1011 234.916 50.1011H240.108C243.232 50.1011 245.807 52.6672 245.807 55.7801V175.796V175.838Z" fill="#FFF9EE"/>
<path d="M439.692 182.064V158.002C439.354 141.512 439.059 124.475 421.498 118.249L420.105 117.744V114.127L421.498 113.622C439.059 107.396 439.354 90.3591 439.65 73.869V49.8069C439.65 26.2496 420.443 7.10938 396.803 7.10938H318.625C317.316 7.10938 316.261 8.16104 316.261 9.4651V222.406C316.261 223.71 317.316 224.762 318.625 224.762H396.803C420.443 224.762 439.65 205.621 439.65 182.064H439.692ZM386.123 173.188C386.123 176.301 383.548 178.867 380.425 178.867H369.534V136.632H380.425C383.548 136.632 386.123 139.198 386.123 142.311V173.188ZM386.123 89.6019C386.123 92.7568 383.548 95.2808 380.425 95.2808H369.534V53.004H380.425C383.548 53.004 386.123 55.57 386.123 58.683V89.6019V89.6019Z" fill="#FFF9EE"/>
<path d="M536.866 4.20654H499.17C475.531 4.20654 456.324 23.3468 456.324 46.9041V185.303C456.324 208.65 475.404 227.664 498.832 227.664H536.866C560.506 227.664 579.713 208.524 579.713 184.966V46.9041C579.713 23.3468 560.506 4.20654 536.866 4.20654V4.20654ZM526.144 175.796C526.144 179.161 523.654 181.811 520.445 181.811H515.253C512.045 181.811 509.555 179.161 509.555 175.796V55.7801C509.555 52.6672 512.13 50.1011 515.253 50.1011H520.445C523.569 50.1011 526.144 52.6672 526.144 55.7801V175.796Z" fill="#FFF9EE"/>
<path d="M659.791 225.056H708.252C709.56 225.056 710.616 224.004 710.616 222.7V160.526C710.616 157.161 713.106 154.51 716.315 154.51H721.507C724.715 154.51 727.206 157.161 727.206 160.526V222.7C727.206 224.004 728.261 225.056 729.569 225.056H778.326C779.634 225.056 780.69 224.004 780.69 222.7V161.83C780.69 138.189 779.508 136.338 762.918 133.687L761.145 133.393V128.513L762.918 128.219C779.55 125.569 780.69 123.718 780.69 100.076V50.2695C780.69 26.7543 761.483 7.61401 737.885 7.61401H659.791C658.483 7.61401 657.427 8.66568 657.427 9.96974V222.7C657.427 224.004 658.483 225.056 659.791 225.056ZM710.616 53.4665H721.507C724.631 53.4665 727.206 56.0326 727.206 59.1455V110.803C727.206 113.916 724.631 116.482 721.507 116.482H710.616V53.4665Z" fill="#FFF9EE"/>
<path d="M789.977 224.173C790.441 224.719 791.117 225.056 791.792 225.056H842.785L844.432 206.21H870.773L872.419 225.056H923.413C924.13 225.056 924.806 224.761 925.228 224.173C925.692 223.626 925.861 222.911 925.734 222.237L883.521 9.50701C883.31 8.41328 882.339 7.61401 881.199 7.61401H834.09C832.95 7.61401 831.979 8.41328 831.768 9.50701L789.512 222.195C789.386 222.911 789.513 223.584 790.019 224.13L789.977 224.173ZM855.196 77.4865H860.051L867.269 160.989H848.315L855.154 77.4865H855.196Z" fill="#FFF9EE"/>
<path d="M936.287 225.056H984.706C986.014 225.056 987.07 224.004 987.07 222.7V89.5176H992.093L1005.26 222.911C1005.39 224.13 1006.4 225.014 1007.63 225.014H1037.01C1038.23 225.014 1039.25 224.088 1039.37 222.911L1052.54 89.5176H1057.57V222.658C1057.57 223.962 1058.62 225.014 1059.93 225.014H1108.35C1109.66 225.014 1110.71 223.962 1110.71 222.658V9.96974C1110.71 8.66568 1109.66 7.61401 1108.35 7.61401H1042.03C1040.85 7.61401 1039.84 8.49741 1039.71 9.63321L1024.64 117.113H1020L1004.93 9.63321C1004.76 8.45534 1003.74 7.61401 1002.6 7.61401H936.287C934.979 7.61401 933.923 8.66568 933.923 9.96974V222.7C933.923 224.004 934.979 225.056 936.287 225.056V225.056Z" fill="#FFF9EE"/>
<path d="M1129.92 225.056H1238.7C1240.01 225.056 1241.07 224.004 1241.07 222.7V181.559C1241.07 180.255 1240.01 179.203 1238.7 179.203H1187.33C1183.7 179.203 1180.74 176.259 1180.74 172.641V145.803C1180.74 142.185 1183.7 139.24 1187.33 139.24H1226.63C1227.94 139.24 1228.99 138.189 1228.99 136.884V95.7855C1228.99 94.4814 1227.94 93.4297 1226.63 93.4297H1187.33C1183.7 93.4297 1180.74 90.4851 1180.74 86.8674V60.0289C1180.74 56.4112 1183.7 53.4665 1187.33 53.4665H1238.7C1240.01 53.4665 1241.07 52.4149 1241.07 51.1108V9.96974C1241.07 8.66568 1240.01 7.61401 1238.7 7.61401H1129.92C1128.61 7.61401 1127.56 8.66568 1127.56 9.96974V222.7C1127.56 224.004 1128.61 225.056 1129.92 225.056Z" fill="#FFF9EE"/>
<path d="M1377.63 7.61401H1336C1334.7 7.61401 1333.64 8.66568 1333.64 9.96974V95.3648H1328.91L1305.61 9.38081C1305.31 8.37121 1304.39 7.65608 1303.33 7.65608H1260.7C1259.39 7.65608 1258.33 8.70774 1258.33 10.0118V222.7C1258.33 224.004 1259.39 225.056 1260.7 225.056H1302.61C1303.92 225.056 1304.98 224.004 1304.98 222.7V137.011H1309.7L1332.42 223.331C1332.67 224.383 1333.64 225.098 1334.7 225.098H1377.63C1378.93 225.098 1379.99 224.046 1379.99 222.742V9.96974C1379.99 8.66568 1378.93 7.61401 1377.63 7.61401Z" fill="#FFF9EE"/>
</svg>
