<svg width="124" height="124" viewBox="0 0 124 124" fill="none" xmlns="http://www.w3.org/2000/svg">
<g clip-path="url(#clip0_85_253)">
<path d="M121.634 71.1902C122.011 68.704 121.633 66.2178 120.485 63.9888C118.976 61.0226 118.822 57.6962 120.056 54.5928C120.982 52.261 121.136 49.7576 120.536 47.3229C119.953 44.9739 118.684 42.8992 116.901 41.3046C114.415 39.0928 113.026 36.2466 112.992 33.2803C112.975 30.7598 112.169 28.3594 110.677 26.3362C109.203 24.3129 107.162 22.8384 104.779 22.0668C101.607 21.0381 99.1551 18.7919 97.8348 15.7571C96.8404 13.4424 95.1772 11.5392 92.9996 10.2361C90.925 9.00155 88.5588 8.41859 86.1755 8.55575C82.9521 8.74436 79.8829 7.62987 77.5339 5.43518C75.785 3.78916 73.5903 2.74325 71.2071 2.36604C68.7209 1.98883 66.2347 2.36604 64.0057 3.51482C61.0395 5.02367 57.696 5.17799 54.6097 3.94347C52.2779 3.01759 49.7574 2.86328 47.3227 3.48053C44.9908 4.0635 42.899 5.3323 41.3044 7.11549C39.0926 9.60166 36.2463 10.9905 33.2801 11.0248C30.7767 11.0419 28.3763 11.8478 26.3359 13.3395C24.3127 14.8141 22.8381 16.8544 22.0666 19.2377C21.0378 22.4097 18.7917 24.8616 15.7568 26.1819C13.4421 27.1763 11.5389 28.8395 10.2358 31.017C9.00131 33.0917 8.41834 35.4407 8.55551 37.8412C8.74412 41.0646 7.62962 44.1337 5.43493 46.4827C3.78892 48.2316 2.74301 50.4263 2.3658 52.8096C1.98858 55.2958 2.3658 57.782 3.51458 60.0109C5.02343 62.9772 5.17774 66.3207 3.94323 69.407C3.01735 71.7388 2.86303 74.2421 3.48029 76.6769C4.06325 79.0259 5.33206 81.1005 7.11524 82.6951C9.60142 84.907 10.9902 87.7532 11.0245 90.7195C11.0417 93.2399 11.8475 95.6404 13.3392 97.6636C14.8138 99.6868 16.8542 101.161 19.2375 101.933C22.4095 102.962 24.8614 105.208 26.1816 108.243C27.1761 110.557 28.8392 112.461 31.0168 113.764C33.0915 114.998 35.4233 115.581 37.8409 115.444C38.0638 115.444 38.3038 115.427 38.5439 115.427C41.5102 115.427 44.305 116.524 46.4996 118.565C48.2657 120.211 50.4432 121.257 52.8265 121.634C55.3127 122.028 57.7989 121.634 60.0278 120.485C62.9941 118.976 66.3376 118.822 69.4239 120.056C71.7557 120.982 74.2762 121.137 76.6938 120.519C79.0428 119.936 81.1175 118.667 82.712 116.884C84.9239 114.398 87.7701 113.009 90.7364 112.975C93.2397 112.958 95.6401 112.152 97.6805 110.66C99.7037 109.186 101.178 107.145 101.95 104.762C102.979 101.59 105.225 99.1382 108.26 97.8179C110.574 96.8234 112.478 95.1603 113.781 92.9827C115.015 90.9081 115.598 88.5419 115.461 86.1586C115.272 82.9352 116.387 79.866 118.582 77.517C120.228 75.7681 121.273 73.5734 121.651 71.1902H121.634ZM118.239 70.6758C117.861 73.1619 116.73 75.3738 115.135 77.0884C113.283 79.0602 112.357 81.6321 112.529 84.3411C112.666 86.6901 112.117 89.0906 110.831 91.251C109.477 93.5143 107.505 95.1774 105.242 96.1376C102.704 97.235 100.818 99.3096 99.9609 101.933C99.2065 104.248 97.7491 106.357 95.6401 107.917C93.514 109.477 91.0621 110.232 88.6103 110.266C86.0212 110.283 83.6722 111.586 81.9405 113.541C80.3802 115.29 78.2884 116.61 75.8536 117.227C73.316 117.862 70.7441 117.639 68.4808 116.747C65.9089 115.736 63.097 115.856 60.628 117.107C58.4504 118.205 55.93 118.667 53.3409 118.273C50.8547 117.896 48.6429 116.764 46.9283 115.17C44.9565 113.318 42.3846 112.392 39.6755 112.563C37.3265 112.701 34.9261 112.152 32.7657 110.866C30.5024 109.512 28.8392 107.54 27.8791 105.276C26.7817 102.739 24.7071 100.853 22.0837 99.9955C19.769 99.241 17.66 97.7836 16.0998 95.6747C14.5395 93.5486 13.785 91.0967 13.7508 88.6448C13.7336 86.0558 12.4305 83.7067 10.4759 81.975C8.72697 80.4147 7.40673 78.3229 6.78947 75.8882C6.15507 73.3505 6.37796 70.7786 7.26956 68.5154C8.28117 65.9435 8.16115 63.1315 6.90949 60.6625C5.81215 58.485 5.3492 55.9645 5.74356 53.3754C6.12077 50.8893 7.25241 48.6774 8.84699 46.9628C10.6988 44.991 11.6246 42.4191 11.4532 39.7101C11.316 37.3611 11.8647 34.9606 13.1506 32.8002C14.5052 30.5369 16.477 28.8738 18.7402 27.9136C21.2779 26.8163 23.1639 24.7416 24.0212 22.1183C24.7756 19.8035 26.2331 17.6946 28.342 16.1343C30.4681 14.574 32.92 13.8196 35.3719 13.7853C37.9609 13.7681 40.3099 12.465 42.0417 10.5104C43.602 8.76151 45.6938 7.44126 48.1285 6.82401C50.6661 6.1896 53.238 6.4125 55.5013 7.30409C58.0732 8.31571 60.8852 8.19569 63.3542 6.94403C65.5317 5.84668 68.0522 5.38374 70.6412 5.7781C73.1274 6.15531 75.3392 7.28695 77.0538 8.88153C79.0256 10.7333 81.5975 11.6592 84.3066 11.4877C86.6556 11.3506 89.0561 11.8992 91.2165 13.1852C93.4797 14.5397 95.1429 16.5115 96.1031 18.7748C97.2004 21.3124 99.2751 23.1985 101.898 24.0558C104.213 24.8102 106.322 26.2676 107.882 28.3765C109.443 30.5027 110.197 32.9545 110.231 35.4064C110.249 37.9955 111.552 40.3445 113.506 42.0762C115.255 43.6365 116.575 45.7283 117.193 48.1631C117.827 50.7007 117.604 53.2726 116.713 55.5358C115.701 58.1077 115.821 60.9197 117.073 63.3887C118.17 65.5663 118.633 68.0867 118.239 70.6758Z" fill="#FFF9EE"/>
<path d="M116.713 55.5187C117.604 53.2555 117.827 50.7007 117.193 48.146C116.576 45.6941 115.255 43.6194 113.506 42.0591C111.569 40.3274 110.266 37.9955 110.232 35.3893C110.214 32.9374 109.443 30.4856 107.882 28.3595C106.339 26.2505 104.23 24.7931 101.899 24.0387C99.2752 23.1814 97.2005 21.2953 96.1032 18.7577C95.143 16.5116 93.4798 14.5226 91.2166 13.1681C89.0562 11.865 86.6386 11.3335 84.3067 11.4706C81.6148 11.6249 79.0429 10.6991 77.054 8.86443C75.3394 7.26985 73.1447 6.13822 70.6413 5.761C68.0523 5.36665 65.5147 5.81244 63.3543 6.92693C60.8853 8.17859 58.0733 8.31576 55.5014 7.287C53.2381 6.39541 50.6834 6.17251 48.1286 6.80691C45.6767 7.42417 43.6021 8.74441 42.0418 10.4933C40.31 12.4308 37.9782 13.7339 35.372 13.7682C32.9201 13.7853 30.4682 14.5569 28.3421 16.1172C26.2332 17.6775 24.7757 19.7693 24.0213 22.1012C23.164 24.7245 21.278 26.7992 18.7404 27.8965C16.4942 28.8567 14.5053 30.5199 13.1507 32.7831C11.8477 34.9435 11.3161 37.3611 11.4533 39.693C11.6076 42.3849 10.6817 44.9568 8.8471 46.9457C7.25252 48.6603 6.12088 50.855 5.74367 53.3583C5.34931 55.9474 5.79511 58.485 6.9096 60.6454C8.16126 63.1144 8.29843 65.9264 7.26966 68.4983C6.37807 70.7616 6.15517 73.3163 6.78958 75.8711C7.40683 78.3229 8.72708 80.3976 10.476 81.9579C12.4135 83.6897 13.7166 86.0215 13.7509 88.6277C13.768 91.0796 14.5396 93.5315 16.0999 95.6576C17.6602 97.7665 19.7691 99.2239 22.0838 99.9784C24.7072 100.836 26.7818 102.722 27.8792 105.259C28.8394 107.505 30.5025 109.494 32.7658 110.849C34.9262 112.152 37.3438 112.684 39.6756 112.546C42.3676 112.392 44.9395 113.318 46.9284 115.153C48.643 116.747 50.8377 117.879 53.341 118.256C55.9301 118.65 58.4677 118.205 60.6281 117.09C63.0971 115.838 65.909 115.701 68.4809 116.73C70.7442 117.622 73.299 117.845 75.8537 117.21C78.3056 116.593 80.3803 115.273 81.9406 113.524C83.6723 111.586 86.0042 110.283 88.6104 110.249C91.0623 110.232 93.5141 109.46 95.6402 107.9C97.7663 106.357 99.2066 104.248 99.961 101.916C100.818 99.2925 102.704 97.2179 105.242 96.1205C107.488 95.1603 109.477 93.4972 110.832 91.2339C112.135 89.0735 112.666 86.6559 112.529 84.3241C112.375 81.6321 113.301 79.0602 115.135 77.0713C116.73 75.3567 117.861 73.162 118.239 70.6587C118.633 68.0696 118.187 65.532 117.073 63.3716C115.821 60.9026 115.684 58.0907 116.713 55.5187ZM56.7016 28.0508L61.7254 27.2278C63.6629 26.9192 65.3604 25.3932 66.2005 23.2499L68.3781 17.6603C68.5838 17.146 69.2182 17.2317 69.2525 17.7975L69.6469 23.7815C69.8012 26.079 70.9671 28.0508 72.716 28.9253L77.2597 31.2228C77.6884 31.4286 77.5683 32.2002 77.1054 32.2687L72.0816 33.0918C70.1441 33.4004 68.4467 34.9264 67.6065 37.0696L65.429 42.6592C65.2232 43.1736 64.5888 43.0879 64.5545 42.5221L64.1601 36.521C64.0058 34.2234 62.8399 32.2516 61.091 31.3772L56.5473 29.0796C56.1187 28.8738 56.2387 28.1023 56.7016 28.0337V28.0508ZM62.9256 55.9302C82.6607 58.9651 98.3836 63.1316 98.0578 65.2234C97.7321 67.3152 81.4776 66.5608 61.7597 63.5088C42.0246 60.4739 26.3017 56.3075 26.6275 54.2157C26.9533 52.1238 43.2077 52.8783 62.9256 55.9302ZM101.47 71.8418C98.0578 93.9601 77.3626 109.117 55.2442 105.722C33.1259 102.31 17.9688 81.615 21.3808 59.4966L22.2896 53.547C21.7581 56.9933 39.2641 62.5486 61.3825 65.9435C83.5009 69.3556 101.864 69.3213 102.379 65.8921L101.47 71.8418Z" fill="#CA3332"/>
<path d="M57.0796 92.0226L57.6625 92.1084C59.8572 92.4513 61.8976 90.9424 62.2405 88.7477L53.7361 87.4275C53.3932 89.6222 54.902 91.6626 57.0967 92.0055L57.0796 92.0226Z" fill="#CA3332"/>
<path d="M53.341 81.6149L49.7232 80.0204C48.3344 79.4031 47.3742 78.1 47.2199 76.5912L46.7912 72.6647C46.7569 72.3047 46.2597 72.2189 46.1054 72.5619L44.5108 76.1797C43.8935 77.5685 42.5904 78.5287 41.0987 78.683L37.1723 79.1116C36.8122 79.1459 36.7265 79.6432 37.0694 79.7975L40.6872 81.3921C42.0761 82.0093 43.0362 83.3124 43.1905 84.8213L43.6192 88.7477C43.6535 89.1078 44.1507 89.1935 44.305 88.8506L45.8996 85.2328C46.5169 83.8439 47.82 82.8838 49.3288 82.7294L53.2553 82.3008C53.6153 82.2665 53.7011 81.7693 53.3581 81.6149H53.341Z" fill="#CA3332"/>
<path d="M80.5007 85.7988L76.8829 84.2042C75.4941 83.587 74.5339 82.2839 74.3796 80.775L73.9509 76.8486C73.9166 76.4885 73.4194 76.4028 73.2651 76.7457L71.6705 80.3464C71.0533 81.7352 69.7502 82.6954 68.2413 82.8497L64.3149 83.2783C63.9548 83.3126 63.8691 83.8099 64.212 83.9642L67.8298 85.5587C69.2186 86.176 70.1788 87.4791 70.3331 88.988L70.7618 92.9144C70.7961 93.2745 71.2933 93.3602 71.4476 93.0173L73.0422 89.3995C73.6595 88.0106 74.9625 87.0504 76.4714 86.8961L80.3978 86.4675C80.7579 86.4332 80.8436 85.936 80.5007 85.7816V85.7988Z" fill="#CA3332"/>
<path d="M61.3832 65.9437C39.2649 62.5316 21.7759 56.9763 22.2903 53.5471L21.3816 59.4968C17.9695 81.6152 33.1437 102.31 55.2449 105.722C77.3633 109.135 98.0585 93.9603 101.471 71.8419L102.379 65.8923C101.848 69.3386 83.4844 69.3557 61.3832 65.9437ZM53.2389 82.2838L49.3124 82.7125C47.8036 82.884 46.5005 83.827 45.8832 85.2158L44.2886 88.8336C44.1343 89.1765 43.6371 89.0908 43.6028 88.7308L43.1742 84.8043C43.0027 83.2955 42.0597 81.9924 40.6708 81.3751L37.053 79.7805C36.7101 79.6262 36.7958 79.129 37.1559 79.0947L41.0823 78.666C42.5912 78.4946 43.8943 77.5515 44.4944 76.1627L46.089 72.5449C46.2433 72.202 46.7405 72.2877 46.7748 72.6478L47.2035 76.5742C47.3749 78.0831 48.318 79.3862 49.7068 80.0034L53.3246 81.598C53.6675 81.7523 53.5818 82.2496 53.2217 82.2838H53.2389ZM57.6454 92.1085L57.0624 92.0228C54.8677 91.6799 53.376 89.6395 53.7018 87.4448L62.2062 88.765C61.8633 90.9597 59.8229 92.4514 57.6282 92.1257L57.6454 92.1085ZM80.3982 86.4675L76.4717 86.8961C74.9629 87.0676 73.6598 88.0106 73.0425 89.3994L71.4479 93.0173C71.2936 93.3602 70.7964 93.2744 70.7621 92.9144L70.3334 88.9879C70.162 87.4791 69.219 86.176 67.8301 85.5587L64.2123 83.9642C63.8694 83.8098 63.9551 83.3126 64.3152 83.2783L68.2416 82.8497C69.7505 82.6782 71.0536 81.7352 71.6708 80.3463L73.2654 76.7457C73.4197 76.4028 73.917 76.4885 73.9513 76.8486L74.3799 80.775C74.5514 82.2838 75.4944 83.5869 76.8832 84.2042L80.501 85.7988C80.8439 85.9531 80.7582 86.4503 80.3982 86.4846V86.4675Z" fill="black"/>
<path d="M61.7602 63.5089C81.4781 66.5437 97.7325 67.3153 98.0583 65.2235C98.3841 63.1317 82.6441 58.9652 62.9261 55.9304C43.2082 52.8955 26.9538 52.1239 26.628 54.2158C26.3022 56.3076 42.0423 60.4741 61.7602 63.5089Z" fill="black"/>
<path d="M61.0909 31.3945C62.8398 32.2689 64.0058 34.2407 64.1601 36.5383L64.5544 42.5394C64.5887 43.088 65.2231 43.1909 65.4289 42.6765L67.6064 37.0869C68.4466 34.9437 70.144 33.4177 72.0815 33.1091L77.1053 32.286C77.5683 32.2175 77.6883 31.4459 77.2596 31.2401L72.7159 28.9426C70.967 28.0681 69.8011 26.0963 69.6468 23.7988L69.2524 17.8148C69.2181 17.2661 68.5837 17.1633 68.378 17.6776L66.2004 23.2672C65.3603 25.4105 63.6628 26.9365 61.7253 27.2451L56.7016 28.0681C56.2386 28.1367 56.1186 28.9083 56.5472 29.114L61.0909 31.4116V31.3945Z" fill="black"/>
<path d="M122.474 62.9774C121.256 60.5941 121.136 57.9022 122.114 55.3989C123.211 52.6384 123.4 49.6549 122.68 46.7573C121.977 43.9796 120.485 41.5106 118.359 39.6245C116.353 37.8413 115.221 35.5609 115.204 33.2462C115.17 30.2628 114.227 27.4166 112.461 25.0161C110.712 22.6157 108.277 20.8668 105.448 19.9409C102.893 19.1179 100.921 17.3176 99.8753 14.8657C98.6923 12.1223 96.7205 9.85905 94.1486 8.3159C91.6967 6.84135 88.919 6.15551 86.0385 6.32697C83.4495 6.48128 80.9461 5.58969 79.0429 3.8065C76.9683 1.869 74.3621 0.600196 71.533 0.171545C68.601 -0.274251 65.6347 0.171545 62.9943 1.52608C60.5938 2.74345 57.919 2.86347 55.4157 1.88615C52.6552 0.788802 49.6718 0.600196 46.7741 1.32033C43.9965 2.02332 41.5274 3.51502 39.6414 5.64112C37.841 7.64721 35.5778 8.77885 33.2631 8.79599C30.2797 8.83028 27.4334 9.77331 25.033 11.5394C22.6325 13.2882 20.8836 15.723 19.9578 18.5521C19.1347 21.0897 17.3344 23.0786 14.8825 24.1417C12.1392 25.3248 9.87589 27.2965 8.33275 29.8684C6.85819 32.3203 6.17235 35.1323 6.34381 37.9785C6.49813 40.5847 5.60653 43.0709 3.82335 44.9741C1.88585 47.0659 0.617042 49.6549 0.188391 52.484C-0.257405 55.4332 0.188391 58.3823 1.54293 61.0399C2.76029 63.4232 2.88032 66.1151 1.90299 68.6184C0.805648 71.379 0.617042 74.3624 1.33717 77.26C2.04016 80.0377 3.53186 82.5067 5.65797 84.3928C7.66405 86.176 8.79569 88.4564 8.81284 90.7711C8.84713 93.7545 9.79016 96.6007 11.5562 99.0183C13.3222 101.419 15.7398 103.168 18.5689 104.076C21.1237 104.899 23.0955 106.7 24.1414 109.152C25.3245 111.895 27.2962 114.158 29.8682 115.701C32.32 117.176 35.132 117.862 37.9611 117.69C40.5844 117.536 43.0534 118.445 44.9566 120.211C47.0485 122.148 49.6375 123.417 52.4666 123.846C53.1867 123.966 53.924 124.017 54.6441 124.017C56.856 124.017 59.0164 123.503 61.0053 122.491C63.4058 121.274 66.0805 121.154 68.5839 122.131C71.3444 123.229 74.3278 123.417 77.2254 122.697C80.0031 121.994 82.4721 120.502 84.3582 118.376C86.1585 116.37 88.4218 115.238 90.7365 115.221C93.7199 115.187 96.5662 114.244 98.9666 112.478C101.367 110.729 103.116 108.294 104.042 105.465C104.865 102.928 106.665 100.939 109.117 99.8756C111.86 98.6926 114.124 96.7208 115.667 94.1489C117.141 91.697 117.827 88.885 117.656 86.0388C117.501 83.4326 118.393 80.9464 120.176 79.0432C122.114 76.9514 123.383 74.3624 123.811 71.5333C124.257 68.5842 123.794 65.635 122.457 62.9774H122.474ZM115.444 86.1588C115.581 88.5593 114.998 90.9083 113.764 92.9829C112.461 95.1433 110.557 96.8236 108.243 97.8181C105.191 99.1212 102.944 101.59 101.933 104.762C101.161 107.146 99.6867 109.186 97.6635 110.66C95.6403 112.152 93.2398 112.941 90.7194 112.975C87.7702 113.009 84.924 114.381 82.695 116.884C81.1004 118.685 79.0086 119.936 76.6768 120.519C74.242 121.137 71.7216 120.965 69.4069 120.056C66.3206 118.839 62.9771 118.993 60.0108 120.485C57.7819 121.617 55.2957 122.011 52.8095 121.634C50.4262 121.274 48.2315 120.211 46.4826 118.565C44.288 116.524 41.4931 115.427 38.5269 115.427C38.304 115.427 38.0639 115.427 37.8239 115.444C35.4063 115.581 33.0573 114.998 30.9998 113.764C28.8394 112.461 27.1591 110.558 26.1646 108.243C24.8615 105.191 22.3925 102.962 19.2205 101.933C16.8372 101.162 14.7968 99.687 13.3222 97.6638C11.8305 95.6406 11.0418 93.2401 11.0075 90.7197C10.9732 87.7705 9.58441 84.9072 7.09824 82.6953C5.2979 81.1007 4.04625 79.0261 3.46328 76.6771C2.84602 74.2423 3.01748 71.7219 3.92622 69.4072C5.14359 66.3209 4.98928 62.9774 3.49757 60.0111C2.36594 57.7822 1.97158 55.296 2.34879 52.8098C2.70886 50.4265 3.77191 48.2318 5.41793 46.4829C7.61262 44.1168 8.72711 41.0476 8.5385 37.8413C8.40133 35.4409 8.9843 33.0748 10.2188 31.0172C11.5219 28.8568 13.4251 27.1765 15.7398 26.1821C18.7918 24.879 21.038 22.4099 22.0496 19.2379C22.8211 16.8546 24.2957 14.8142 26.3189 13.3397C28.3422 11.848 30.7426 11.0593 33.2631 11.025C36.2122 10.9907 39.0756 9.619 41.2874 7.11568C42.882 5.31535 44.9738 4.06369 47.3057 3.48073C49.7404 2.88062 52.2609 3.03493 54.5927 3.94367C57.679 5.16104 61.0225 5.00672 63.9887 3.51502C66.2177 2.38338 68.7039 1.98902 71.1901 2.36624C73.5733 2.7263 75.768 3.78935 77.5169 5.43537C79.8659 7.63006 82.9351 8.72741 86.1585 8.55595C88.5418 8.41878 90.9251 9.00174 92.9826 10.2363C95.143 11.5394 96.8233 13.4426 97.8178 15.7573C99.1209 18.8093 101.59 21.0554 104.762 22.067C107.145 22.8386 109.186 24.3131 110.66 26.3364C112.152 28.3596 112.941 30.76 112.975 33.2805C113.009 36.2296 114.398 39.0759 116.884 41.3048C118.685 42.8994 119.936 44.9912 120.519 47.3231C121.136 49.7578 120.965 52.2783 120.039 54.593C118.822 57.6964 118.976 61.0228 120.468 63.989C121.599 66.218 121.994 68.7042 121.616 71.1903C121.256 73.5736 120.193 75.7683 118.547 77.5172C116.353 79.8834 115.238 82.9525 115.427 86.1588H115.444Z" fill="black"/>
</g>
<defs>
<clipPath id="clip0_85_253">
<rect width="124" height="124" fill="white"/>
</clipPath>
</defs>
</svg>
