<svg width="15" height="11" viewBox="0 0 15 11" fill="none" xmlns="http://www.w3.org/2000/svg">
<path d="M12.3814 0.863376C11.4615 0.460039 10.478 0.16691 9.44968 0C9.32339 0.213973 9.17585 0.501771 9.07412 0.730713C7.98102 0.576655 6.89796 0.576655 5.82496 0.730713C5.72326 0.501771 5.57237 0.213973 5.44495 0C4.41554 0.16691 3.43084 0.461116 2.51097 0.865511C0.655578 3.49304 0.152612 6.05531 0.404095 8.5812C1.63469 9.44242 2.82728 9.96559 3.99975 10.3079C4.28924 9.93455 4.54742 9.53764 4.76984 9.11933C4.34623 8.96849 3.94051 8.78234 3.55715 8.56623C3.65885 8.49562 3.75834 8.42179 3.85445 8.34583C6.19268 9.37075 8.73323 9.37075 11.0435 8.34583C11.1408 8.42179 11.2402 8.49562 11.3408 8.56623C10.9563 8.7834 10.5495 8.96955 10.1259 9.12041C10.3483 9.53764 10.6054 9.93563 10.896 10.309C12.0696 9.96664 13.2633 9.4435 14.4939 8.5812C14.789 5.65305 13.9898 3.11432 12.3814 0.863376ZM5.08839 7.0278C4.38648 7.0278 3.81085 6.4137 3.81085 5.66589C3.81085 4.91807 4.37419 4.30291 5.08839 4.30291C5.80262 4.30291 6.37823 4.91699 6.36593 5.66589C6.36704 6.4137 5.80262 7.0278 5.08839 7.0278ZM9.80958 7.0278C9.10767 7.0278 8.53204 6.4137 8.53204 5.66589C8.53204 4.91807 9.09536 4.30291 9.80958 4.30291C10.5238 4.30291 11.0994 4.91699 11.0871 5.66589C11.0871 6.4137 10.5238 7.0278 9.80958 7.0278Z" fill="#FFF9EE"/>
</svg>
