<svg width="73" height="32" viewBox="0 0 73 32" fill="none" xmlns="http://www.w3.org/2000/svg">
<g clip-path="url(#clip0_7_242)">
<path d="M7.59667 7.21802C6.5852 7.21802 5.68203 7.83333 5.32618 8.76487L0 22.997H6.62388C7.73785 22.997 8.73579 22.317 9.12838 21.2902L14.3927 7.21992H7.59667V7.21802Z" fill="#FFF9EE"/>
<path d="M22.1478 25.2125L22.6835 23.7476C22.9117 23.3037 23.3488 22.9951 23.8632 22.9951H25.4858C30.7327 22.9951 35.3336 19.5471 36.7338 14.5674C38.7974 7.24277 33.2043 0 25.4877 0H19.2313C17.9858 0 16.868 0.76009 16.429 1.9088L14.3983 7.218H24.6542C27.7698 7.218 30.0287 10.1422 29.1952 13.0987C28.6305 15.1085 26.7719 16.501 24.6542 16.501H15.2067C14.0444 16.501 13 17.202 12.5726 18.2669L10.6851 22.9951H17.7808L15.7753 28.2834L14.2726 31.9981H45.5683C47.0922 31.9981 48.4576 31.0646 48.9895 29.6588L50.6701 25.2125H22.1478Z" fill="#FFF9EE"/>
<path d="M42.267 22.997C43.3809 22.997 44.3789 22.3169 44.7715 21.2901L50.2234 7.21985H43.4274C42.4178 7.21985 41.5147 7.83516 41.1588 8.7667L35.645 22.9989H42.2689L42.267 22.997Z" fill="#FFF9EE"/>
<path d="M58.5184 23.7476C58.7466 23.3037 59.1837 22.9951 59.6981 22.9951H61.3207C66.5657 22.9951 71.1686 19.5471 72.5688 14.5674C74.6304 7.24277 69.0373 0 61.3207 0H55.0643C53.8188 0 52.701 0.76009 52.262 1.9088L50.2313 7.218H60.4872C63.6028 7.218 65.8617 10.1422 65.0282 13.0987C64.4635 15.1085 62.6049 16.501 60.4872 16.501H51.0378C49.8755 16.501 48.833 17.202 48.4056 18.2669L46.5181 22.9951H53.6138L51.6083 28.2796L50.1037 31.9981H67.7764C69.3004 31.9981 70.6657 31.0646 71.1976 29.6588L72.8801 25.2125H57.9808L58.5165 23.7476H58.5184Z" fill="#FFF9EE"/>
</g>
<defs>
<clipPath id="clip0_7_242">
<rect width="73" height="32" fill="white"/>
</clipPath>
</defs>
</svg>
