<svg width="13" height="13" viewBox="0 0 13 13" fill="none" xmlns="http://www.w3.org/2000/svg">
<g clip-path="url(#clip0_7_249)">
<path d="M12.5846 2.33842C12.3862 2.42643 12.1821 2.50071 11.9737 2.56102C12.2205 2.2819 12.4086 1.95348 12.5235 1.59409C12.5493 1.51354 12.5226 1.42536 12.4564 1.37267C12.3902 1.31995 12.2983 1.31363 12.2255 1.35678C11.7828 1.61936 11.3052 1.80806 10.8044 1.9184C10.2999 1.42544 9.61467 1.1449 8.90632 1.1449C7.41111 1.1449 6.19465 2.36132 6.19465 3.85649C6.19465 3.97425 6.2021 4.09136 6.21685 4.20683C4.36144 4.04393 2.63649 3.13197 1.45198 1.67897C1.40977 1.62718 1.34473 1.59927 1.27815 1.60461C1.21153 1.60982 1.15167 1.64739 1.11802 1.70513C0.877772 2.11737 0.750764 2.58885 0.750764 3.06856C0.750764 3.72194 0.98404 4.34187 1.39612 4.82627C1.27082 4.78287 1.14923 4.72864 1.03318 4.66422C0.970879 4.62954 0.894845 4.63007 0.83295 4.66556C0.771015 4.70105 0.732183 4.76633 0.730553 4.83768C0.730268 4.8497 0.730268 4.86172 0.730268 4.8739C0.730268 5.84918 1.25517 6.72724 2.05768 7.20581C1.98874 7.19893 1.91984 7.18895 1.85138 7.17587C1.78081 7.16238 1.70824 7.18711 1.66064 7.24094C1.61297 7.29472 1.5972 7.3697 1.61916 7.43815C1.91621 8.36556 2.68099 9.0477 3.60554 9.25568C2.83872 9.73596 1.96181 9.98753 1.04125 9.98753C0.849168 9.98753 0.655986 9.97625 0.46692 9.95388C0.372998 9.94271 0.283192 9.99817 0.251205 10.0875C0.219219 10.1768 0.25312 10.2765 0.333025 10.3277C1.51563 11.086 2.88306 11.4867 4.2874 11.4867C7.04817 11.4867 8.77524 10.1849 9.73789 9.09273C10.9383 7.73092 11.6268 5.9284 11.6268 4.14738C11.6268 4.07298 11.6256 3.99784 11.6233 3.92295C12.0969 3.56613 12.5047 3.13429 12.8365 2.63795C12.8869 2.56257 12.8814 2.46294 12.823 2.39355C12.7647 2.32412 12.6676 2.30166 12.5846 2.33842Z" fill="#FFF9EE"/>
</g>
<defs>
<clipPath id="clip0_7_249">
<rect width="12.6316" height="12.6316" fill="white" transform="translate(0.239258)"/>
</clipPath>
</defs>
</svg>
