<svg width="221" height="28" viewBox="0 0 221 28" fill="none" xmlns="http://www.w3.org/2000/svg">
<path d="M13.1071 15.6842V15.8453C15.3271 16.201 15.4805 16.6439 15.4805 19.55V27.0131C15.4805 27.3151 15.2405 27.5634 14.9338 27.5634H9.02027C8.72026 27.5634 8.47359 27.3218 8.47359 27.0131V19.3889C8.47359 19.107 8.27358 18.9124 8.04024 18.9124H7.40689C7.16688 18.9124 6.97354 19.1137 6.97354 19.3889V27.0131C6.97354 27.3151 6.73354 27.5634 6.42686 27.5634H0.546683C0.246674 27.5634 0 27.3218 0 27.0131V0.925824C0 0.62381 0.240007 0.375488 0.546683 0.375488H10.027C13.0271 0.375488 15.4805 2.84529 15.4805 5.86542V11.9795C15.4805 14.8923 15.3205 15.3285 13.1071 15.6842ZM8.04024 13.7312C8.28025 13.7312 8.47359 13.5299 8.47359 13.295V6.95267C8.47359 6.71106 8.27358 6.51643 8.04024 6.51643H6.97354V13.7312H8.04024Z" fill="#FFF9EE"/>
<path d="M32.5078 22.4361C32.5078 25.4563 30.0544 27.9261 27.0543 27.9261H22.4408C19.4474 27.9261 17.0273 25.4831 17.0273 22.4764V5.50995C17.0273 2.48982 19.4808 0.0200195 22.4808 0.0200195H27.0543C30.0544 0.0200195 32.5078 2.48982 32.5078 5.50995V22.4361ZM23.9942 21.3086C23.9942 21.5905 24.1942 21.7851 24.4276 21.7851H25.0609C25.3009 21.7851 25.4943 21.5838 25.4943 21.3086V6.5972C25.4943 6.35559 25.2943 6.16096 25.0609 6.16096H24.4276C24.1876 6.16096 23.9942 6.3623 23.9942 6.5972V21.3086Z" fill="#FFF9EE"/>
<path d="M47.1616 13.9325V14.0131C49.5017 14.852 49.5017 17.1607 49.535 19.2345V22.0735C49.535 25.0936 47.0816 27.5634 44.0815 27.5634H34.5945C34.2945 27.5634 34.0479 27.3218 34.0479 27.0131V0.925824C34.0479 0.62381 34.2879 0.375488 34.5945 0.375488H44.0815C47.0816 0.375488 49.535 2.84529 49.535 5.86542V8.70435C49.495 10.7782 49.495 13.0869 47.1616 13.9258V13.9325ZM41.0281 11.1809H42.0948C42.3348 11.1809 42.5281 10.9795 42.5281 10.7446V6.95938C42.5281 6.71777 42.3281 6.52314 42.0948 6.52314H41.0281V11.1876V11.1809ZM41.0281 21.4225H42.0948C42.3348 21.4225 42.5281 21.2211 42.5281 20.9862V17.201C42.5281 16.9594 42.3281 16.7647 42.0948 16.7647H41.0281V21.4292V21.4225Z" fill="#FFF9EE"/>
<path d="M66.522 22.4361C66.522 25.4563 64.0686 27.9261 61.0685 27.9261H56.455C53.4616 27.9261 51.0415 25.4831 51.0415 22.4764V5.50995C51.0415 2.48982 53.4949 0.0200195 56.495 0.0200195H61.0685C64.0686 0.0200195 66.522 2.48982 66.522 5.50995V22.4361ZM58.0084 21.3086C58.0084 21.5905 58.2084 21.7851 58.4417 21.7851H59.0751C59.3151 21.7851 59.5084 21.5838 59.5084 21.3086V6.5972C59.5084 6.35559 59.3084 6.16096 59.0751 6.16096H58.4417C58.2017 6.16096 58.0084 6.3623 58.0084 6.5972V21.3086Z" fill="#FFF9EE"/>
<path d="M141.277 15.7315V15.8925C143.491 16.2482 143.651 16.6912 143.651 19.5972V27.0536C143.651 27.3556 143.411 27.5972 143.111 27.5972H137.191C136.891 27.5972 136.651 27.3556 136.651 27.0536V19.4362C136.651 19.1543 136.451 18.9596 136.217 18.9596H135.584C135.344 18.9596 135.151 19.161 135.151 19.4362V27.0536C135.151 27.3556 134.911 27.5972 134.611 27.5972H128.73C128.43 27.5972 128.19 27.3556 128.19 27.0536V0.986495C128.19 0.684482 128.43 0.442871 128.73 0.442871H138.211C141.211 0.442871 143.658 2.91267 143.658 5.92609V12.0335C143.658 14.9395 143.498 15.3758 141.284 15.7382L141.277 15.7315ZM136.211 13.7784C136.451 13.7784 136.644 13.5771 136.644 13.3422V7.00663C136.644 6.76502 136.444 6.57039 136.211 6.57039H135.144V13.7784H136.211Z" fill="#FFF9EE"/>
<path d="M154.291 27.6038L154.091 25.2951H151.364L151.164 27.6038H144.744C144.404 27.6038 144.144 27.2884 144.211 26.9528L149.338 0.878988C149.391 0.623955 149.611 0.436035 149.871 0.436035H155.584C155.844 0.436035 156.064 0.617243 156.118 0.878988L161.245 26.9528C161.311 27.2884 161.051 27.6038 160.711 27.6038H154.291ZM153.618 19.2414L152.784 9.52328H152.664L151.878 19.2414H153.618Z" fill="#FFF9EE"/>
<path d="M172.765 13.8589L174.558 0.905834C174.598 0.637377 174.825 0.436035 175.098 0.436035H183.145C183.445 0.436035 183.685 0.677646 183.685 0.979659V27.0535C183.685 27.3555 183.445 27.5971 183.145 27.5971H177.272C176.972 27.5971 176.732 27.3555 176.732 27.0535V10.9931H176.612L175.038 27.1072C175.012 27.3891 174.778 27.5971 174.498 27.5971H170.932C170.652 27.5971 170.418 27.3823 170.392 27.1072L168.818 10.9931H168.698V27.0535C168.698 27.3555 168.458 27.5971 168.158 27.5971H162.285C161.985 27.5971 161.745 27.3555 161.745 27.0535V0.986371C161.745 0.684357 161.985 0.442747 162.285 0.442747H170.332C170.605 0.442747 170.832 0.644089 170.872 0.912545L172.665 13.8656H172.778L172.765 13.8589Z" fill="#FFF9EE"/>
<path d="M199.506 0.986495V6.02676C199.506 6.32878 199.266 6.57039 198.966 6.57039H192.732C192.432 6.57039 192.192 6.812 192.192 7.11401V10.4026C192.192 10.7046 192.432 10.9462 192.732 10.9462H197.499C197.799 10.9462 198.039 11.1878 198.039 11.4899V16.5301C198.039 16.8321 197.799 17.0737 197.499 17.0737H192.732C192.432 17.0737 192.192 17.3154 192.192 17.6174V20.906C192.192 21.208 192.432 21.4496 192.732 21.4496H198.966C199.266 21.4496 199.506 21.6912 199.506 21.9932V27.0335C199.506 27.3355 199.266 27.5771 198.966 27.5771H185.766C185.466 27.5771 185.226 27.3355 185.226 27.0335V0.986495C185.226 0.684482 185.466 0.442871 185.766 0.442871H198.966C199.266 0.442871 199.506 0.684482 199.506 0.986495Z" fill="#FFF9EE"/>
<path d="M206.806 0.436035C207.053 0.436035 207.266 0.60382 207.333 0.83872L210.113 11.1877H210.233V0.986371C210.233 0.684357 210.473 0.442747 210.773 0.442747H215.82C216.12 0.442747 216.36 0.684357 216.36 0.986371V27.0535C216.36 27.3555 216.12 27.5971 215.82 27.5971H210.606C210.36 27.5971 210.146 27.4293 210.08 27.1877L207.38 16.8052H207.26V27.0535C207.26 27.3555 207.02 27.5971 206.72 27.5971H201.633C201.333 27.5971 201.093 27.3555 201.093 27.0535V0.986371C201.093 0.684357 201.333 0.442747 201.633 0.442747H206.806V0.436035Z" fill="#FFF9EE"/>
<path d="M121.157 28H74.2489C72.4022 28 70.8955 26.4832 70.8955 24.6242V3.37584C70.8955 1.51678 72.4022 0 74.2489 0H121.157C123.004 0 124.51 1.51678 124.51 3.37584V24.6242C124.51 26.4832 123.004 28 121.157 28ZM74.2489 0.872483C72.8756 0.872483 71.7622 1.99329 71.7622 3.37584V24.6242C71.7622 26.0067 72.8756 27.1275 74.2489 27.1275H121.157C122.53 27.1275 123.644 26.0067 123.644 24.6242V3.37584C123.644 1.99329 122.53 0.872483 121.157 0.872483H74.2489Z" fill="#FFF9EE"/>
<path d="M101.71 21.5838H87.1959L87.8959 19.8254L88.8293 17.3153H85.5425L86.4159 15.0737C86.6159 14.5704 87.0959 14.2348 87.6359 14.2348H92.0161C92.9961 14.2348 93.8628 13.5771 94.1228 12.6241C94.5095 11.2214 93.4628 9.83883 92.0161 9.83883H87.2759L84.8492 16.4697C84.6692 16.9529 84.2025 17.2818 83.6891 17.2818H80.6157L83.0825 10.5368C83.2491 10.0939 83.6691 9.80528 84.1358 9.80528H87.2693L88.1959 7.32206C88.4026 6.77843 88.916 6.41602 89.496 6.41602H92.3961C95.9762 6.41602 98.5696 9.85226 97.6096 13.3221C96.9629 15.6845 94.8228 17.3153 92.3961 17.3153H91.6427C91.4027 17.3153 91.2027 17.463 91.096 17.671L90.8494 18.3623H104.076L103.296 20.4697C103.05 21.1341 102.416 21.5771 101.71 21.5771V21.5838Z" fill="#FFF9EE"/>
<path d="M114.377 18.369L113.597 20.4764C113.35 21.1408 112.717 21.5838 112.01 21.5838H103.817L104.517 19.8187L105.443 17.3153H102.15L103.023 15.0737C103.223 14.5704 103.703 14.2348 104.243 14.2348H108.623C109.603 14.2348 110.47 13.5771 110.73 12.6241C111.117 11.2214 110.07 9.83883 108.623 9.83883H103.89L101.377 16.4697C101.197 16.9529 100.73 17.2818 100.216 17.2818H97.1431L99.7031 10.5368C99.8698 10.0939 100.29 9.80528 100.757 9.80528H103.883L104.81 7.32206C105.017 6.77843 105.53 6.41602 106.11 6.41602H109.01C112.59 6.41602 115.184 9.85226 114.224 13.3221C113.577 15.6845 111.437 17.3153 109.01 17.3153H108.257C108.017 17.3153 107.817 17.463 107.71 17.671L107.463 18.3623H114.37L114.377 18.369Z" fill="#FFF9EE"/>
</svg>
