<svg width="47" height="18" viewBox="0 0 47 18" fill="none" xmlns="http://www.w3.org/2000/svg">
<path d="M14.7829 4.68704C14.6015 4.71928 14.3612 4.71928 14.3294 4.53502L14.1186 1.01111C14.0868 0.829158 14.1186 0.644901 14.2977 0.582714C15.4449 0.246445 18.1112 0 20.1313 0C23.8722 0 26.6156 1.10324 26.6156 4.68704V15.929C26.6156 16.1133 26.5544 16.2653 26.2234 16.3897C24.863 16.7881 22.3033 17.0023 20.163 17.0023C14.4949 17.0023 13.3613 15.9912 13.3613 12.1932C13.3613 8.93185 14.0415 7.60981 17.8663 7.10771L21.1221 6.70926C21.2445 6.67931 21.3035 6.64707 21.3035 6.525V5.69815C21.3035 4.59491 20.6097 4.31622 18.6191 4.31622C17.334 4.35905 16.0528 4.48289 14.7829 4.68704ZM21.3103 9.84163C21.3103 9.79092 21.2904 9.7423 21.2551 9.70645C21.2199 9.6706 21.172 9.65046 21.1221 9.65046H20.0451C18.415 9.65046 17.6918 9.86465 17.6918 11.7026C17.6918 13.5406 18.3266 13.7248 19.832 13.7248C20.2783 13.7413 20.7248 13.6995 21.1606 13.6005C21.2808 13.5406 21.3103 13.4784 21.3103 13.3863V9.84163Z" fill="#FFF9EE"/>
<path d="M0.337818 16.6962C0.296097 16.699 0.254249 16.6932 0.21478 16.6792C0.175311 16.6651 0.139036 16.6432 0.108126 16.6146C0.0772163 16.586 0.0523087 16.5513 0.034898 16.5127C0.0174873 16.4741 0.0079309 16.4323 0.00680144 16.3898V13.2713C0.00680144 12.9281 0.15644 12.6978 0.399034 12.35L5.61368 5.38278C5.76188 5.21076 5.86414 5.00299 5.91069 4.77934C5.91737 4.71336 5.90047 4.64715 5.86308 4.59278C5.83741 4.56425 5.80626 4.54136 5.77156 4.52552C5.73686 4.50967 5.69934 4.50121 5.66129 4.50065C5.45271 4.48453 5.23959 4.50065 5.031 4.50065H0.453448C0.333186 4.50065 0.217849 4.45212 0.132811 4.36573C0.0477735 4.27934 0 4.16218 0 4.04001V0.762536C0 0.640367 0.0477735 0.5232 0.132811 0.436813C0.217849 0.350426 0.333186 0.301894 0.453448 0.301894H11.8554C11.9013 0.299096 11.9473 0.305717 11.9906 0.321361C12.0339 0.337005 12.0737 0.361352 12.1075 0.392949C12.1414 0.424547 12.1686 0.462747 12.1876 0.505272C12.2066 0.547797 12.217 0.593777 12.2181 0.640467V3.77974C12.2349 4.08536 12.1503 4.38785 11.9778 4.63884L11.8509 4.80467L11.504 5.26531L10.987 5.95628L10.3499 6.79234L9.6403 7.71363L8.91251 8.67176L8.20967 9.59305L7.58391 10.413L7.08739 11.0671L6.7677 11.4955C6.61472 11.6671 6.50571 11.8744 6.45029 12.0989C6.44354 12.1316 6.439 12.1647 6.43669 12.198C6.43075 12.2445 6.4354 12.2918 6.45029 12.3362C6.46514 12.3673 6.4867 12.3947 6.5134 12.4162C6.54009 12.4378 6.57122 12.4529 6.60447 12.4605C6.76402 12.4875 6.9263 12.4937 7.08739 12.479H11.7534C11.875 12.482 11.9907 12.5334 12.0755 12.6221C12.1603 12.7108 12.2074 12.8298 12.2068 12.9534V16.2401C12.2068 16.3623 12.159 16.4795 12.074 16.5658C11.989 16.6522 11.8736 16.7008 11.7534 16.7008L0.337818 16.6962Z" fill="#FFF9EE"/>
<path d="M43.3684 16.1798L43.3208 16.0946L43.0419 15.5902C42.9127 15.3599 42.7857 15.1296 42.6565 14.8992C42.5046 14.6275 42.3504 14.3557 42.203 14.0839L41.6906 13.1856L41.1533 12.2459L40.616 11.3246L40.1081 10.4448L39.6547 9.66634L39.2783 9.03295C39.1899 8.88555 39.1015 8.73814 39.0108 8.59304C38.9369 8.47313 38.8947 8.33589 38.8883 8.19458C38.899 8.05912 38.9523 7.93073 39.0402 7.82837C39.2035 7.57042 39.3622 7.31015 39.5209 7.04989C39.7491 6.6737 39.9759 6.29674 40.2011 5.91901C40.4391 5.52056 40.6727 5.1221 40.9062 4.72365C41.1397 4.32519 41.3596 3.93134 41.5864 3.53289C41.8131 3.13443 42.0171 2.78895 42.2303 2.41583C42.4184 2.08877 42.6043 1.76172 42.7925 1.43697C42.9512 1.15828 43.1258 0.881892 43.2754 0.598597C43.3616 0.435069 43.1893 0.306088 43.0487 0.306088H38.3079C38.2172 0.297028 38.1262 0.319411 38.0496 0.369594C37.9731 0.419777 37.9155 0.494807 37.8862 0.582474C37.8545 0.651571 37.8205 0.718364 37.7887 0.78746C37.624 1.12526 37.457 1.46307 37.2877 1.80087C37.0904 2.19703 36.8886 2.59318 36.6869 2.98703C36.4851 3.38087 36.2561 3.81618 36.0362 4.22846C35.8162 4.64073 35.6122 5.02076 35.3945 5.41C35.2948 5.58965 35.195 5.767 35.0907 5.94204C34.9864 6.11709 34.9184 6.31747 34.7257 6.35892C34.5948 6.3827 34.4618 6.39274 34.3289 6.38887C33.9367 6.38887 33.7871 6.32668 33.7871 6.14242V0.757517C33.7871 0.635347 33.7393 0.518183 33.6542 0.431795C33.5692 0.345408 33.4539 0.296875 33.3336 0.296875H28.9261C28.8058 0.296875 28.6905 0.345408 28.6055 0.431795C28.5204 0.518183 28.4727 0.635347 28.4727 0.757517V16.2397C28.4727 16.3619 28.5204 16.479 28.6055 16.5654C28.6905 16.6518 28.8058 16.7003 28.9261 16.7003H33.3381C33.4584 16.7003 33.5737 16.6518 33.6588 16.5654C33.7438 16.479 33.7916 16.3619 33.7916 16.2397V10.712C33.7916 10.5277 33.8505 10.4356 34.304 10.4356C34.4231 10.4198 34.5442 10.4406 34.6516 10.4952C34.7591 10.5497 34.848 10.6357 34.9071 10.7419C35.0522 11.0206 35.2018 11.297 35.3605 11.5757L35.9387 12.6421C36.1495 13.0267 36.3581 13.4137 36.5667 13.7937C36.7753 14.1737 36.9725 14.5514 37.172 14.9338C37.3466 15.2677 37.5212 15.604 37.689 15.9426C37.7615 16.09 37.8273 16.2443 37.9021 16.4032C37.9471 16.4936 38.0158 16.5695 38.1006 16.6228C38.1854 16.676 38.2831 16.7044 38.3827 16.7049H43.1145C43.2686 16.7049 43.5158 16.6151 43.4908 16.4147C43.4634 16.33 43.422 16.2505 43.3684 16.1798Z" fill="#FFF9EE"/>
<path d="M46.0051 1.10767C46.006 1.21548 45.9856 1.32239 45.9452 1.42206C45.9047 1.52174 45.845 1.61215 45.7695 1.68796C45.694 1.76377 45.6044 1.82342 45.5058 1.8634C45.4072 1.90338 45.3018 1.92286 45.1957 1.9207C45.0864 1.9291 44.9766 1.91449 44.8732 1.87778C44.7698 1.84108 44.6749 1.78307 44.5946 1.70739C44.5142 1.63172 44.4501 1.54 44.4063 1.43799C44.3625 1.33599 44.3398 1.22588 44.3398 1.11458C44.3398 1.00328 44.3625 0.893173 44.4063 0.791165C44.4501 0.689157 44.5142 0.597443 44.5946 0.521767C44.6749 0.446091 44.7698 0.388083 44.8732 0.351377C44.9766 0.314672 45.0864 0.30006 45.1957 0.308456C45.3007 0.306007 45.4052 0.324837 45.503 0.363846C45.6008 0.402856 45.69 0.461265 45.7653 0.535663C45.8407 0.610061 45.9007 0.698956 45.9418 0.797166C45.983 0.895375 46.0045 1.00093 46.0051 1.10767ZM44.5835 1.10767C44.5811 1.19137 44.5952 1.27471 44.6252 1.35273C44.6551 1.43075 44.7002 1.50186 44.7577 1.56181C44.8153 1.62177 44.8841 1.66935 44.9601 1.70173C45.0361 1.7341 45.1178 1.75061 45.2002 1.75027C45.368 1.75027 45.5289 1.68256 45.6475 1.56205C45.7661 1.44154 45.8328 1.2781 45.8328 1.10767C45.8328 0.937243 45.7661 0.773795 45.6475 0.653285C45.5289 0.532775 45.368 0.465074 45.2002 0.465074C45.1179 0.465046 45.0364 0.481768 44.9605 0.514255C44.8846 0.546742 44.8159 0.594335 44.7584 0.654227C44.701 0.714119 44.6559 0.785097 44.6258 0.862975C44.5958 0.940853 44.5814 1.02405 44.5835 1.10767ZM45.071 1.52916H44.8873V0.725336C44.9876 0.707415 45.0893 0.698934 45.1911 0.700001C45.2864 0.691939 45.3819 0.71278 45.4655 0.759885C45.4899 0.781724 45.5095 0.808663 45.5228 0.83887C45.5361 0.869076 45.5428 0.901839 45.5426 0.934929C45.5394 0.979944 45.5216 1.02263 45.4921 1.05636C45.4626 1.09009 45.4229 1.11299 45.3793 1.12149C45.4188 1.13822 45.4531 1.16544 45.4786 1.2003C45.5042 1.23515 45.52 1.27635 45.5244 1.31957C45.5321 1.38912 45.5512 1.45687 45.5811 1.51995H45.3839C45.3532 1.45828 45.3318 1.39229 45.3204 1.32417C45.3068 1.23435 45.2592 1.19519 45.1571 1.19519H45.071V1.52916ZM45.071 1.06852H45.1571C45.2592 1.06852 45.3408 1.03397 45.3408 0.951052C45.3408 0.868136 45.2864 0.828982 45.1707 0.828982C45.1376 0.825255 45.1041 0.825255 45.071 0.828982V1.06852Z" fill="#FFF9EE"/>
</svg>
